/* XPM */
static char *__PhotoRoom_png_PhotoRoom1674145470[] = {
/* columns rows colors chars-per-pixel */
"64 64 241 2 ",
"   c None",
".  c #351B01",
"X  c #3B1D02",
"o  c #3E2102",
"O  c #383631",
"+  c #3F372F",
"@  c #421F03",
"#  c #442302",
"$  c #4C2B01",
"%  c #4D2303",
"&  c #522C02",
"*  c #5B2C03",
"=  c #573001",
"-  c #5A3201",
";  c #572E15",
":  c #642C04",
">  c #623402",
",  c #6D3403",
"<  c #6B3B01",
"1  c #663800",
"2  c #743C01",
"3  c #7E3B05",
"4  c #763505",
"5  c #6F3116",
"6  c #492A28",
"7  c #58352D",
"8  c #4E3028",
"9  c #6A3B29",
"0  c #7C3B28",
"q  c #7C4301",
"w  c #7A4C08",
"e  c #6F4505",
"r  c #55492E",
"t  c #564A32",
"y  c #4A4232",
"u  c #634C2F",
"i  c #6D562E",
"p  c #76552C",
"a  c #685B35",
"s  c #7A452C",
"d  c #746934",
"f  c #843E05",
"g  c #853B0A",
"h  c #9C3500",
"j  c #9B3B00",
"k  c #963801",
"l  c #8E3F16",
"z  c #A43C00",
"x  c #A83E00",
"c  c #873E26",
"v  c #844600",
"b  c #8C4504",
"n  c #8C4A00",
"m  c #974606",
"M  c #944D00",
"N  c #9D4506",
"B  c #9B5201",
"V  c #955905",
"C  c #924116",
"Z  c #91521E",
"A  c #A54100",
"S  c #AA4200",
"D  c #A44A04",
"F  c #AB4A00",
"G  c #A94C08",
"H  c #B34600",
"J  c #B24B00",
"K  c #BD4D00",
"L  c #B24D0A",
"P  c #A45401",
"I  c #AD5501",
"U  c #AB5903",
"Y  c #B55400",
"T  c #BB5400",
"R  c #B45C00",
"E  c #BC5C00",
"W  c #B55209",
"Q  c #BC5608",
"!  c #BF5909",
"~  c #AA5A13",
"^  c #9C6100",
"/  c #BC6301",
"(  c #BA6307",
")  c #B36915",
"_  c #AE6F00",
"`  c #8E4E2B",
"'  c #954221",
"]  c #98572A",
"[  c #895A26",
"{  c #AF5525",
"}  c #85682B",
"|  c #986C2A",
" . c #8B742A",
".. c #937527",
"X. c #896D34",
"o. c #897537",
"O. c #9A7E38",
"+. c #A77627",
"@. c #B77E25",
"#. c #BF6125",
"$. c #C04F00",
"%. c #C25300",
"&. c #C85700",
"*. c #C35E00",
"=. c #CA5D00",
"-. c #C75B09",
";. c #D05D09",
":. c #C65714",
">. c #C56100",
",. c #CA6500",
"<. c #C66A01",
"1. c #CC6A00",
"2. c #CE630B",
"3. c #D36E00",
"4. c #DC6D00",
"5. c #D6650B",
"6. c #DB690A",
"7. c #CD7302",
"8. c #D57400",
"9. c #D97600",
"0. c #D57B02",
"q. c #DD7B00",
"w. c #D77F09",
"e. c #C97614",
"r. c #D97617",
"t. c #E76A0C",
"y. c #F46D0D",
"u. c #E47102",
"i. c #ED7601",
"p. c #E27E00",
"a. c #EC760B",
"s. c #EA770A",
"d. c #FD7D03",
"f. c #FD740C",
"g. c #FE7C0C",
"h. c #F27905",
"j. c #E87618",
"k. c #FA7D15",
"l. c #C96724",
"z. c #BB941E",
"x. c #9D842D",
"c. c #A18D33",
"v. c #BC9436",
"b. c #B39328",
"n. c #B5A037",
"m. c #DD8300",
"M. c #DC880D",
"N. c #DB9205",
"B. c #D78B19",
"V. c #DC9319",
"C. c #CC8F1A",
"Z. c #E28300",
"A. c #E38B01",
"S. c #EC8C00",
"D. c #E58508",
"F. c #FE8306",
"G. c #FF8C04",
"H. c #FE830B",
"J. c #FF8D09",
"K. c #F28605",
"L. c #E49300",
"P. c #ED9400",
"I. c #EC9C00",
"U. c #E59807",
"Y. c #F39300",
"T. c #FD9503",
"R. c #F79A00",
"E. c #FE9C03",
"W. c #FF930C",
"Q. c #FB9C0B",
"!. c #EB8116",
"~. c #FE8614",
"^. c #FD8913",
"/. c #E69D1B",
"(. c #E79815",
"). c #FF9C13",
"_. c #FC9617",
"`. c #DDAD0E",
"'. c #EBA706",
"]. c #FEA401",
"[. c #F5AB00",
"{. c #FFAC00",
"}. c #FFAA0E",
"|. c #F3A304",
" X c #E9B605",
".X c #FFB301",
"XX c #FEBB00",
"oX c #FFB50B",
"OX c #FFB80B",
"+X c #F5B000",
"@X c #EEA013",
"#X c #EDA51A",
"$X c #FEAB13",
"%X c #FFAB1C",
"&X c #FBA618",
"*X c #EAB91A",
"=X c #FFB513",
"-X c #FFBA16",
";X c #FEB41C",
":X c #FFBD1B",
">X c #F4BA1C",
",X c #D89523",
"<X c #C89C35",
"1X c #C1902E",
"2X c #E39A20",
"3X c #C6A325",
"4X c #D1A637",
"5X c #D7B62E",
"6X c #E8A825",
"7X c #FCB423",
"8X c #FFBB23",
"9X c #FCBC2A",
"0X c #F3B82C",
"qX c #F1BD34",
"wX c #ECB12E",
"eX c #FFC400",
"rX c #FFCC00",
"tX c #FCC40A",
"yX c #FFCE0D",
"uX c #FFD200",
"iX c #FFD80E",
"pX c #FFC11E",
"aX c #FFCB1C",
"sX c #FFC017",
"dX c #FFD516",
"fX c #FFD11D",
"gX c #FFD913",
"hX c #FFC424",
"jX c #FFCA25",
"kX c #FFC52A",
"lX c #FFC92B",
"zX c #FFDB24",
"xX c #FFDB2B",
"cX c #FDD228",
"vX c #FEC532",
"bX c #FFCC32",
"nX c #F0CF30",
"mX c #FFD233",
"MX c #ECCA30",
"NX c #FFE22D",
"BX c #FFE133",
/* pixels */
"                                                                                                                                ",
"                                                                                                                                ",
"                                                                                                                                ",
"                                                                                                                                ",
"                                                                                                                                ",
"                                          a o.v.4X4X1X[ 6                                                                       ",
"                                      x.wXmXmX9XB./ I S S A k g 5 6 ;                                                           ",
"                                  | %X:X:X7XM.Y S j j j k j N z S z S k g 5 6                                                   ",
"                              y ,XXXXX.XR.*.S S S S S S S A A j k k j N S S F Y F ~ Z 9 6                                       ",
"                            a qXbXbXkXV.F z A S S S S S S S S S S S S j j j S F Y 3.3.7.3.<.~ Z p } @.@.+.p                     ",
"                          i 7XkXhXkXB.S j z j k k j A S A S S S S S S S S F Y Y *.1.<.<.1.3.Z.].{..X.X.XXXXX'...                ",
"                        i {..X.X.X0.S S S S S S A z j k j k j A S z S S S J J T 3.3.3.3.q.(.=X-X:X-XXXeXrXrXrXrX Xd             ",
"                      u ]..X.X{.7.S S S S S S S S S S S S z j j j k j j A J Y T 3.3.3.D.9XbXbXbXjXrXrXrXrXrXrXrXuXrX .          ",
"                    O (..X.X{.m.A j k k j A z S S S S S S S S S S S A j N F F J ,.3.U.8XlXlXjXaXrXrXXXP.8.7.A.I.rXgXfXa         ",
"                    | .X{..X.XE.S.m.7./ I A j k k j j S S S S S S S S S S K J Y ,.A.{..X.XXXaXzXaXL.*.K >.>.>.8.A.jXNX5X        ",
"                    ] W.Q.].{.:XkXbXmXkX7X|.S.0.,.Y F N j k j z z S S S F T Y T Z.{..X.X.XaXxX>X<.H K 1.3.8.>.>.3.m.eXrXd       ",
"                      { L L 2.j.~._.&X$X]..X.X.X.X=X;X#X(.8.>.I F j j j z Y J q.{..X.X.XeXrX|.&.K H Y 3.8.3.3.,.>.3.I.rX3X      ",
"                        l % X % * 4 m W 5.a.H.W.%X7X;X.X.X.X{.{.].P.m.1./ Y 7.{..X.X.XXXrXA.T $.K %.>.>.1.8.3.8.1./ 8.XX X      ",
"                          C % . . . . . X % : 3 N ! 6.h.J.T.].{.{..X.X.X{.{.{.XX{..XeXrXL.K S K K =.8.,.>.1.3.3.3.3.E I.rX      ",
"                          8 l @ . . . . . . . . . . # > 3 m W 2.s.h.J.T.].{.{..X.XXXrXI.T K H S T 3.8.3.1.>.1.3.3.3.1.m.eX      ",
"                            6 l X . . . . . . . . . o $ $ $ $ & * , 3 N Q 5.a.H.T.XXrX+X3.K K K K 1.3.3.3.1.>.1.3.3.3.m.eX      ",
"                              9 l X . . . . . . . . $ $ $ $ $ $ $ $ $ $ $ & - , G H.XXuXXX8.K K >.>.1.8.3.8.1.>.1.3.3.q.tX      ",
"                                9 g . . . . . . X # $ $ $ $ $ $ $ $ $ $ $ $ $ $ & g a.{.rXrXm.T ,.3.>.1.3.3.3.3.>.1.3.N.nX      ",
"                                  0 4 . X . . . X $ $ $ $ $ $ $ $ $ $ $ $ $ $ $ $ $ 2 6.$XxXxXU.3.3.1.>.,.8.3.8.3.>./ U.5X      ",
"                                    c , . . . X $ $ $ $ $ $ $ $ $ $ $ $ $ $ $ $ $ $ $ > -.&XcXxX>X0.3.8.<.>.3.3.8.3.>.'.c.      ",
"                                      ' : . . # $ $ $ $ $ $ $ $ $ $ $ = $ $ $ $ $ $ $ $ * L _.aXgXXX0.3.3.<.>.3.3.3.3.+X        ",
"                                        ' * o % $ $ $ $ $ $ $ $ $ $ $ $ = $ $ $ $ $ $ $ $ & m F.XXrXXXZ.3.3.,.<.3.3.0.`.        ",
"                                        8 :.G b 4 > & $ $ $ $ $ $ $ $ $ $ $ $ $ $ $ & $ $ $ $ f s.{.rXrXP.3.3.1.>.1.|.c.        ",
"                                  7 ` l.j.~.H.g.f.y.5.Q D g < > $ $ $ $ $ $ $ $ $ $ $ $ $ $ $ $ , 6.%XxXxX'.3.3.1.<.*X          ",
"                        6 9 ] l.k.~.^.^.D.r.!.^.~.~.^.H.g.g.y.t.;.L m 3 1 & & $ $ $ $ $ $ $ $ $ $ * -.Q.rXuX|.9.3.Z.z.          ",
"                6 s { r.k.~.H.K.q.8.<./ R B B P R ( 7.9.a.F.H.H.H.H.g.g.y.t.-.G b 4 > & $ $ $ $ $ $ & G G.XXrX[.q.'.            ",
"        7 ` #.j.~.g.F.i.9.1.<./ ( U B n e 2 q v n M M B P P R / 3.4.i.d.g.H.H.H.f.f.y.5.Q D f , * & $ $ b K.XXrXeXz.            ",
"        _.T.W.J.F.d.i.4.1./ B q 1 - $ $ $ = - - - 1 < 2 q n n M B B B P R >.1.u.i.d.H.F.H.g.g.f.t.;.W m 3 m a..XrXx.            ",
"        (..X{.{.;X$XW.J.F.h.2.Y n < - $ $ & - * - - - - - - > 1 < 2 v n M M B B P U R <.3.u.i.d.d.H.g.g.f.y.y.g.V.              ",
"        | {.{.-X9XoX.X{.}.%X&X_.J.g.u.2.P b e 1 - - - - - - - - - - - - > 1 < q v n M M B B D R 4.i.F.H.G.J.Q.].|               ",
"        X.-X.XE.Y T 8.P.;XvXlX;X}.%XQ.W.J.^.h.u.>.P v < - - - - - - - - - - - & - - 2 M R 4.i.d.F.T.]..XpXaXrXrX..              ",
"        X.lXpX].J h z Y E 7.w.P.kXpX.X{.{.}.%X).W.J.g.a.6.( V w < - - * - < w B ! 3.a.F.T.Q.$X:XeXeXrXfXcXrXXXXX..              ",
"        X.lXhX].J z S *.*.E Y 0.pXN._ ].OX8XkX8X.X{.].T.W.J.^.~.!.e.) ) r.!.~.W.Q.].{.XXeXfXxXfXXX[.P.A.Z.{.XX8Xr               ",
"        X.lXhXS.z z x *.,.*.>.q..XV = N.lX(.1.0.S.R.{.{.{.=X7X&XW.W._.).E.{.OXaXrXeXeXeX.X'.L.m.8.8.9.3.q.{.pXvX                ",
"        X.jX.X>.h z x T *.,.>.0.{._ e MXbXm.E Y Y R *.8.Z.@X7X{..X{.{.eXeXuXjXtX[.I.Z.0.9.9.9.9.8.8.8.8.8.].hXvX                ",
"        X.sXY.z z h h F *.*.*.3.].V w nX7X8.>.*.*.*.E T Y R E 3.E.{.XXeXeXXXA.8.9.9.9.9.9.8.8.8.9.0.q.q.8.R.hXvX                ",
"        X.{.*.z z x x S E E E E m.#X6X7XZ.,.>.>.>.>.>.,.>.*.T Z.{.].{.OX.X.XY.3.8.8.8.8.9.0.q.q.p.q.p.q.9.Z.=XvX                ",
"        X.T.z z x x x x T >.>.*.E 7.9.<.E E *.>.>.>.>.>.>.*.*.E.{..X=XbX:X{.T.1.9.0.q.p.q.p.q.q.q.q.q.8.8.1.].9X                ",
"        X.S.k h z z z z H >.,.*./ >.>.>.>.*.E E E E *.*.,.*.1.].{.oX=XbXhX.XR.1.q.p.q.q.q.q.q.9.8.8.9.9.9.8.P.8X                ",
"        X.oXJ h z h h z z Y >.*.>.>.>.>.>.>.>.>.*.*.E E E T *.]..X.X=XbXlXXXp.=.q.q.9.8.8.8.9.0.q.p.q.q.p.3.Y.;X                ",
"        X.jXA.z z x x z z S Y E *.*.*.>.>.>.,.>.*.,.>.,.>.E Y T..XoX-XbXkX{.,.%.3.8.9.9.q.q.p.q.q.q.p.q.9.0.].8X                ",
"        X.jX=XT h x x z z z J *.E E E E E *.*.*.,.*.>.>.>.>.T p.{.oX=XbXhXY.K %.3.p.q.q.q.q.q.q.9.9.8.8.3.R.-XvX                ",
"        X.kX-X9.h z x x x x x J *.,.>.*.*.E E E E E *.>.>.>.*.,.].XX;XbX-X9.$.&.=.9.p.q.q.9.8.8.9.9.0.9.S.XXkXvX                ",
"        X.sX{.Z.k z h z z z z z J *.>.>.,.*.*.>.*.*.E E E E E T S..X:XlX{.=.$.%.%.=.8.8.9.0.q.q.q.q.q.q.E.XXlXvX                ",
"        1XhX-Xm.z z z z j z j z z S *.*.*.,.>.>.>.>.>.>.*.*.*.I 9.{.=XlXOX3.H $.%.%.1.q.q.p.q.q.q.p.q.9.]..XkXvX                ",
"        $XOX:X7X6XB.( G S z z z h z A I E *.>.>.>.>.>.>.*.,.*.T S.{.-XlX8XE.=.$.&.&.&.3.q.p.q.q.9.8.8.3.]..XXX;X                ",
"        @.(.{.:XbXbX9X7X6Xe.( S z z z z S T E E E *.*.*.,.*.E 3.].{.;XbXhXXXS.$.%.&.&.%.&.1.3.8.9.9.8.3.Y.-X:XlX                ",
"            t o.<X%X.XhXlX:X8X7X2Xe.! A z z H T *.E E E E Y *.E.{..X:XbXlX.X{.1.K %.K T %.$.%.&.=.1.m.(.0XmXdXuX3X              ",
"                    t O.,X|.{..XXX:X8X7X,Xe.Y S S J T *.>.Y Z.].{..X=XbXlX.X.XZ.K %.$.$.T &.1.M.#X:XaXzXNXuXrX X                ",
"                            i +.V.{.{.XXOXhXbXwX,Xe.Y S S J T.{.]..X;XbX8X.X.XK.$.%.,.0./.qXlXdXuXuXdXnX3X .                    ",
"                                  + p @./.kXbXmXhX;X7X6XB.e.].{.{.{..X:XXX.X.XU.(.wXlXaXNXzXuXeX`.c.a                           ",
"                                          t o.v.(.{.XXpXmXbXkX9X8X=X.X=XhXhXjXmXxXNXgXzXMXz. .                                  ",
"                                                  r | 4XqX-X.XXX-X:XkXjXyXrXgXNXcX5Xx.o.                                        ",
"                                                        O u +.C.]..XXXrXrXMXn.d                                                 ",
"                                                                r i +...r                                                       ",
"                                                                                                                                ",
"                                                                                                                                ",
"                                                                                                                                ",
"                                                                                                                                "
};
