/* XPM */
static char *Screen_Shot_2023_01_14_at_5_34_47_PM_removebg_preview1673714846[] = {
/* columns rows colors chars-per-pixel */
"64 64 51 1 ",
"  c None",
". c #7F2024",
"X c #A01E22",
"o c #8F2025",
"O c #962226",
"+ c #9E2226",
"@ c #9A282A",
"# c #A32327",
"$ c #AA2325",
"% c #A42428",
"& c #AD2629",
"* c #A32A2B",
"= c #AA2B2A",
"- c #B62527",
"; c #BA2427",
": c #B4272A",
"> c #BA2729",
", c #B5282A",
"< c #BD292B",
"1 c #A63332",
"2 c #C12325",
"3 c #CA2426",
"4 c #C42729",
"5 c #CE2729",
"6 c #C52A2C",
"7 c #CB292B",
"8 c #D52427",
"9 c #DC2325",
"0 c #D22628",
"q c #DD2628",
"w c #D22B2C",
"e c #DD2B2C",
"r c #CA2F30",
"t c #C03132",
"y c #CD3031",
"u c #D43333",
"i c #DD3433",
"p c #D63837",
"a c #D53C3B",
"s c #DC3C3B",
"d c #E02124",
"f c #E02628",
"g c #E02C2D",
"h c #E03333",
"j c #E13836",
"k c #E03C3A",
"l c #DF403F",
"z c #DE4443",
"x c #DD4847",
"c c #DC4A4A",
"v c #DC5354",
/* pixels */
"                                                                ",
"                                                                ",
"                                                                ",
"                                                                ",
"                                                                ",
"                                                                ",
"                                                                ",
"                                                                ",
"               =&$@1=$$                 ====$$                  ",
"               8qqiise946>             uiiigq99982              ",
"             ;3qejzxzziw08:::       647ehhjhee9d98>.            ",
"             8fgjlcxlasw88666%     >qffeghgqww89d97*            ",
"            8qghzclsp77u887774%   6efffie898775898r6>           ",
"            9gjxzzau75wwyw8776<%;39dqeww785877770766<           ",
"           ;9jzcxzp787776y77556659998yw570757776y676<           ",
"          ;8fcvzzp7505w666775577580500w07557557r67677<:         ",
"          28gcvxpw5057666666r5557575555777777767776777,         ",
"          :0qcvcp7557766666667575755776666777y75776776,         ",
"          :wixxay5777668ew6666757556666ue866r707777666:         ",
"          :0hkzuw57766wiger77666757677rihq767775w77476:         ",
"          >wjzsy57666uijgghgd54677679hjhhhe06477557776,         ",
"          :7hksw77660ikjhhedd854665ehhgfgjf8w467577466,         ",
"          &7eksw7667gjkjjh9dddd3678gkgdfgfdd8767757766,         ",
"          &6eipw5667jjsjgdddddddq8ighffgfddd0667577466:         ",
"           &7ui7766rjllhddddddddddfhgfgfdddd94677766<+          ",
"            <yiy764rjzlgdddddddddddfhhfddddd84677766<           ",
"            <weu766rjkjhdddddddddddfihddddd9866676666           ",
"            %40ww666wjjgfddddddddddfdfgfdd995667766:&           ",
"             ,79wr666ujgddddddddddfdddfg9d956676466%            ",
"             ,798w766wghgddddddddgfddddfhq856677666%            ",
"             &<0885660eig9ddddddgfdddddd87w0667766>             ",
"               <8d07667eggdddddgfdddddd9856467466,              ",
"               <09806667ehfdddgddddddd98576676666,              ",
"               :48987766wgfddgfddddddd007667y766<%              ",
"                $6987776679ghfdddddd99376777666<                ",
"                 $70007467wifddddddd8744477766,o                ",
"                  &490776tt78dddddd8566757666<O                 ",
"                   X78957666789dd997666776676                   ",
"                    &387r766658998776475666<%                   ",
"                     $6w7777666005667777666&                    ",
"                      @675577666776477766<%                     ",
"                       :<575566666777766<:                      ",
"                        %677777746756666%                       ",
"                         &677557777766<&                        ",
"                          &67557076666:                         ",
"                           &67757776<+                          ",
"                            &247674,%                           ",
"                             ,66766+                            ",
"                              +66>O                             ",
"                               &:#                              ",
"                                                                ",
"                                                                ",
"                                                                ",
"                                                                ",
"                                                                ",
"                                                                ",
"                                                                ",
"                                                                ",
"                                                                ",
"                                                                ",
"                                                                ",
"                                                                ",
"                                                                ",
"                                                                "
};
