/* XPM */
static char *__PhotoRoom_png_PhotoRoom1674145471[] = {
/* columns rows colors chars-per-pixel */
"64 64 227 2 ",
"   c None",
".  c #351B01",
"X  c #3A1E01",
"o  c #3D2002",
"O  c #12162C",
"+  c #261E2E",
"@  c #3C252D",
"#  c #432402",
"$  c #4B2402",
"%  c #4D2B01",
"&  c #532C01",
"*  c #5A2E02",
"=  c #573101",
"-  c #5A3201",
";  c #652D06",
":  c #623402",
">  c #6B3402",
",  c #6C3B01",
"<  c #693404",
"1  c #713603",
"2  c #723C02",
"3  c #793A05",
"4  c #75350D",
"5  c #7C391C",
"6  c #793718",
"7  c #432A2D",
"8  c #4C2B2B",
"9  c #562E2A",
"0  c #473C2F",
"q  c #59332C",
"w  c #453E33",
"e  c #683528",
"r  c #7A3B22",
"t  c #733823",
"y  c #6E4100",
"u  c #7A4100",
"i  c #7D4907",
"p  c #7F5206",
"a  c #58452F",
"s  c #505126",
"d  c #4B4C29",
"f  c #78462C",
"g  c #78592E",
"h  c #675A34",
"j  c #674F2E",
"k  c #7D6A2E",
"l  c #7F7636",
"z  c #6E6838",
"x  c #823E04",
"c  c #823D0C",
"v  c #883F02",
"b  c #9E3600",
"n  c #9F3900",
"m  c #953200",
"M  c #863D14",
"N  c #843E1B",
"B  c #A43B00",
"V  c #853D22",
"C  c #834601",
"Z  c #8B4405",
"A  c #8C4A00",
"S  c #944505",
"D  c #944E00",
"F  c #9D4B05",
"G  c #9D5201",
"H  c #95560C",
"J  c #89500B",
"K  c #A74100",
"L  c #AA4300",
"P  c #AD4C01",
"I  c #A74C06",
"U  c #B34500",
"Y  c #B24A00",
"T  c #BC4D00",
"R  c #A35500",
"E  c #AA5604",
"W  c #AB5900",
"Q  c #A75F0F",
"!  c #B45302",
"~  c #BB5501",
"^  c #B05C00",
"/  c #BD5B00",
"(  c #BA5708",
")  c #99680B",
"_  c #A76A00",
"`  c #BC6202",
"'  c #B66300",
"]  c #B66712",
"[  c #835F2D",
"{  c #9E542A",
"}  c #8B4B2B",
"|  c #AE5B28",
" . c #8A732A",
".. c #91722B",
"X. c #BD6025",
"o. c #AF7926",
"O. c #C04F00",
"+. c #C35400",
"@. c #C25E00",
"#. c #CB5B00",
"$. c #CA5A07",
"%. c #C66200",
"&. c #CA6500",
"*. c #CC6B00",
"=. c #C46B04",
"-. c #D06600",
";. c #D26D00",
":. c #DB6E02",
">. c #D7640B",
",. c #CE7000",
"<. c #D67400",
"1. c #D97600",
"2. c #D47900",
"3. c #DC7B00",
"4. c #D67408",
"5. c #C97A16",
"6. c #CF7011",
"7. c #E6680B",
"8. c #EE6C0B",
"9. c #EC7500",
"0. c #E17E00",
"q. c #E77707",
"w. c #FC7C03",
"e. c #FD750B",
"r. c #FF7C0D",
"t. c #F47909",
"y. c #E97916",
"u. c #F37D16",
"i. c #F06D0F",
"p. c #DC6F20",
"a. c #CF6B23",
"s. c #B9941F",
"d. c #9E8026",
"f. c #A98926",
"g. c #B88228",
"h. c #AF912F",
"j. c #DE8300",
"k. c #DF8C10",
"l. c #D48517",
"z. c #C49B1C",
"x. c #D08E1D",
"c. c #E48300",
"v. c #E58D03",
"b. c #ED8C00",
"n. c #E98500",
"m. c #FD8206",
"M. c #FF8B05",
"N. c #FF820B",
"B. c #FF8B0A",
"V. c #F48407",
"C. c #E59400",
"Z. c #EA9C00",
"A. c #EC9709",
"S. c #F69400",
"D. c #FE9303",
"F. c #F59B00",
"G. c #FD9C02",
"H. c #FF940B",
"J. c #FF9D0B",
"K. c #FF8715",
"L. c #FE8915",
"P. c #FF8F1A",
"I. c #E69A18",
"U. c #FF9317",
"Y. c #FE9A18",
"T. c #CFA51A",
"R. c #D9AB12",
"E. c #EBA300",
"W. c #E6AC00",
"Q. c #EEA909",
"!. c #FEA501",
"~. c #F1A900",
"^. c #FFAC01",
"/. c #FCA509",
"(. c #FDAA0A",
"). c #F3A707",
"_. c #E6B404",
"`. c #FFB401",
"'. c #FFBC00",
"]. c #FFB60C",
"[. c #FFBB0C",
"{. c #F7B400",
"}. c #FFA919",
"|. c #F9A71B",
" X c #FFB413",
".X c #FFBA15",
"XX c #FFB21A",
"oX c #FFBD1C",
"OX c #F4B718",
"+X c #D28F20",
"@X c #D39B2B",
"#X c #D69724",
"$X c #E39F26",
"%X c #C8A626",
"&X c #D9A62A",
"*X c #D2A030",
"=X c #DABC30",
"-X c #E9A927",
";X c #F2AE23",
":X c #FCB424",
">X c #FFBC23",
",X c #F9B92B",
"<X c #E1B728",
"1X c #FFC400",
"2X c #FFCC01",
"3X c #FCC709",
"4X c #FFD100",
"5X c #FFD70B",
"6X c #FDC31C",
"7X c #FFCD1B",
"8X c #FFCA17",
"9X c #FFD716",
"0X c #DDC034",
"qX c #FEC322",
"wX c #FFCB25",
"eX c #FFC52C",
"rX c #FFC92B",
"tX c #F4C625",
"yX c #FFD324",
"uX c #FDD42E",
"iX c #FBD92B",
"pX c #FFCC32",
"aX c #FBC433",
"sX c #FFD335",
"dX c #EECC2D",
"fX c #FFE127",
"gX c #FFE133",
/* pixels */
"                                                                                                                                ",
"                                                                                                                                ",
"                                                                                                                                ",
"                                                                                                                                ",
"                                                                                                                                ",
"                                        O V M N r e q 8                                                                         ",
"                                        + 4 . $ * < > 4 c c M } r t e 8 7                                                       ",
"                                        @ < . . X # % % % % % & * : > 3 3 c M N V r e q 8                                       ",
"                                        9 * . . . . # % % % % % % % % % % % % & & - : 1 3 3 M Z N N r f  .                      ",
"                                        e $ . . . . . # % % % % % % % % % % % % % % % % % % % & & & C D.1XR. .                  ",
"                                        5 o . . . . . . # % % % % % % % % % % % % % % % % % % % % % S !.1X`.1X1Xh.              ",
"                                        6 . . . . . . . o % % % % % % % % % % % % % % % % % % % % % ( '.E.+.<.Z.9XdX .          ",
"                                        4 . . . . . . . . % % % % % % % % % % % % % % % % % % % % & >.1XC.T U T 2.6X4Xs.d       ",
"                                      8 * . . . . . . . . # % % % % % % & % % % % & % % % % % % % * y.2X3.T U T T / ~.2Xz.s     ",
"                                      e $ . . . . . . . . # % % % % % % % % % % % % % % % % % % % 1 Y.yX;.T U T T U +.~.4X..    ",
"                                      r o . . . . . . . . % % % % % % % % % % % % % % % % % & % % Z |.wX&.T ~ &.@.~ +.*.'.3X    ",
"                                      M . . . . . . . . o % % % % = % % % % % % % % % % % % % % % I ,XtX&.&.*.<.&.*.;.%.C.2X .  ",
"                                    + 6 . . . . . . . . # % % % % % % % % % % % % % % % % % % % % %.6XOX;.=.;.;.&.;.<.&.j.2Xz.  ",
"                                    7 ; . . . . . . . # % % % & % % % % % % & % % % % % % % % % * q.1XE.;.&.;.<.&.;.<.&.3.2XT.  ",
"                                    q & . . . . . . # % % % % % % % % % % % % % % % % % % % % % : V.1Xv.*.&.;.;.&.;.*.&.j.4Xz.  ",
"                                    t $ . . . . X # % % % % % % % % % % % % % % % % % % % % % % x J.1X3.*.*.<.&.&.;.*.&.C.9Xf.  ",
"                                    6 X . . X o % % % % % % % % % % % % % % % % % % % % % % % % F XX1X1.&.*.<.&.*.<.*.&.~.iX    ",
"                                    M o o # $ % % % % % % % % % % % % % % % % % % % % % % % % $ ( wXOX4.&.;.;.&.;.;.&.2.1X0X    ",
"                                q { i.>.( F x < * % % % % % % $ % % % % % % % % % & % % % % % & :.3XQ.;.&.;.<.&.;.<.%.Z.4Xk     ",
"                        e { a.K.L.L.L.L.L.N.r.e.7.$.! S 3 : * & % % % % % % % % % % % % % % % : V.1XC.*.&.;.;.&.;.;.2.1Xz.      ",
"              7 f | p.u.B.V.q.2.=.^ W ' =.4.q.V.K.N.r.K.r.8.>.$.I Z 1 - & % % % % % % % % % % 3 D.1Xc.*.&.<.*.&.;.3.'.R.        ",
"      q } X.y.r.m.9.q.;.=.` W R A u u A A D G R W ' &.:.9.w.w.m.N.r.e.8.>.( F x < - % % % % # S !.1X3.&.*.;.&.*.Z.2Xz.          ",
"    a J.H.M.B.m.9.:.&.W A , - % % % - - - , , u u A D D G R ^ ` &.:.9.w.w.N.r.r.e.7.$.P S 3 : ( `.{.1.*.2.j.Z.tX=X&X            ",
"    a !.`.^.>X}.G.D.B.t.&.E Z , - % = = = - - = - - : , y u C A D G G E ^ / &.:.9.w.r.m.r.e.8.r.^.W.E.W.<XT.f.                  ",
"      +X`.^.I.F.!.^.>X:X:XH.B.m.7.=.E Z y - - - - - - - - - - - - , , u C A R W %.:.w.M.M./.(.`.f.                              ",
"      @X6X!./ n ~ 2.I.;X}..X>X!.!.G.H.N.r.:.@.G C , - - = - = = - : y A W *.9.M.H./.^.'.7XyX2X2Xk                               ",
"      *XrX`.@.B L / ! / *.>X(.Z.`. XeX>X(.J.H.B.N.u.6.] H i J Q =.y.m.M.G.!.`.wXyX2X'.{.Q.`.`.].                                ",
"      *XwX^.Y B P @.%.%.*.`._ y Q.>Xk.v.F.!.^.^.!.}.|.H.U.P.U.J.(..X1X1X1X1X3XOXZ.c.3.<.;.S.].eX                                ",
"      *X6Xn.n B B @.%.@.;.^._ p eX:X&.! / %.*.3.b.:X X^.!.^.1X1X7X7X{.Z.v.c.3.;.<.<.<.2.;.b.oXpX                                ",
"      @X!.~ B B B T ` %.&.F.) ) eXI.&.%.@./ / ~ / / &.G.^.'.1X'.!.2.1.<.<.<.<.<.<.1.1.3.1.0. XrX                                ",
"      #Xc.B B B B P / / / *.I.-XA.;.%.%.%.%.%.%.%./ 3.!.!.]. X`.!.<.<.<.1.2.3.3.0.3.0.0.3.2.G.eX                                ",
"      +X/ n B B B P @.#.%.%.&.*.%./ / / @.@.%.&.%.@.S.!.`.>XrX].!.;.1.3.0.0.0.3.3.3.1.<.<.<.n.>X                                ",
"      @X&.m B B B B Y %.%.%.%.@.%.%.@.@./ / / / / / D.^.`.oXsXoX!.-.3.3.3.1.1.<.2.1.1.3.3.3.3. X                                ",
"      *X/.B B B B B B ! / @.%.%.%.%.%.%.%.%.%.@./ ! b.`.].6XpXoXb.+.<.<.2.1.1.3.3.0.3.3.3.<.b..X                                ",
"      *XqX;.b L B B B L / / / / / / %.%.%.%.%.%.#./ 2.^.`.oXpX X;.~ -.3.0.3.0.3.3.3.1.2.<.3.!.eX                                ",
"      *XwXb.n B B B B L U @.%.@.@.@./ / / @.%.@.%.%.@.G.`.6XrX!.+.+.#.0.0.1.1.1.2.<.1.1.3.G.6XpX                                ",
"      @X`.D.B n n B B B B Y @.&.%.%.%.%.@./ / / / / ~ c.`.>XrXb.O.+.+.#.2.1.1.3.3.0.0.3.c.^.qXrX                                ",
"    w :XoX|.^ K B B B B B B B ~ %.%.%.%.%.%.%.%.@.@.! <.!.oXrXG.~ T +.+.-.3.0.3.3.0.3.1.n.`.oXrX                                ",
"    a `.`..XaX-Xl.=.! B B B B B P ~ / @.@.%.%.%.&.@./ b.`.oXpX].n.+.+.#.$.-.1.3.1.1.2.;.3.^.`.oX                                ",
"      j o.@XeXrXoXeX,X$Xl.=.E B B K ! / / / / / / / 1.!.`.oXpXoX!.;.O.+.+.+.+.%.-.;.<.2.j.>XwX7X                                ",
"            h g g.&X X'.].XX:XI.l./ P K Y ~ / @./ / G.!.`.oXsX6X`.b.T O.+.O.~ +.&.3.I.OXuXiX4X2X                                ",
"                    d [ g.A.`.{.].oX,X$X5.( P Y P :.!.^.`.>XrX.X`.F.O.O.+.<.I.;X6X3X4X9XdX%Xf.                                  ",
"                            a [ x.;XsXsXrXXX;XI.5.v.`.!.!.].oX`.`./.k.-XqXyXiX5X1X_.h.z                                         ",
"                                    h ..@X(.(.rXpXeXeX>X.X].oXwXtXiXgXfX9XdX%X .                                                ",
"                                            h h.&X(.`.`..X6X3X4X5XsX=Xf.h                                                       ",
"                                                  0 g o.I.'._.s.l l                                                             ",
"                                                                                                                                ",
"                                                                                                                                ",
"                                                                                                                                ",
"                                                                                                                                ",
"                                                                                                                                ",
"                                                                                                                                ",
"                                                                                                                                ",
"                                                                                                                                ",
"                                                                                                                                ",
"                                                                                                                                ",
"                                                                                                                                ",
"                                                                                                                                ",
"                                                                                                                                "
};
