/* XPM */
static char *__PhotoRoom_png_PhotoRoom1674145470[] = {
/* columns rows colors chars-per-pixel */
"64 64 238 2 ",
"   c None",
".  c #3D251E",
"X  c #000C2D",
"o  c #04152D",
"O  c #0B192E",
"+  c #07162D",
"@  c #121E2E",
"#  c #181F2F",
"$  c #111E30",
"%  c #17232D",
"&  c #192532",
"*  c #0E2029",
"=  c #282B2C",
"-  c #322929",
";  c #383829",
":  c #242831",
">  c #3C3D34",
",  c #323230",
"<  c #2D312F",
"1  c #4A2901",
"2  c #542E01",
"3  c #563001",
"4  c #5B3301",
"5  c #502F1E",
"6  c #623601",
"7  c #6C3C02",
"8  c #673A01",
"9  c #733E00",
"0  c #67351C",
"q  c #793612",
"w  c #472B24",
"e  c #443B2E",
"r  c #483D30",
"t  c #533628",
"y  c #6A3A20",
"u  c #754401",
"i  c #7B4603",
"p  c #794A02",
"a  c #744D11",
"s  c #796913",
"d  c #43452B",
"f  c #55472D",
"g  c #59562B",
"h  c #4E4B31",
"j  c #6B552D",
"k  c #795B2A",
"l  c #655C33",
"z  c #745E33",
"x  c #6D4929",
"c  c #65622A",
"v  c #776729",
"b  c #7F6B36",
"n  c #7F6B38",
"m  c #7A6733",
"M  c #7A7532",
"N  c #8D3C06",
"B  c #943200",
"V  c #9D3500",
"C  c #973A00",
"Z  c #9C3B00",
"A  c #A43C00",
"S  c #A93F00",
"D  c #A23700",
"F  c #8B4B02",
"G  c #834904",
"H  c #9E4200",
"J  c #984F00",
"K  c #8C5304",
"L  c #985505",
"P  c #995616",
"I  c #8F591F",
"U  c #A64100",
"Y  c #A94200",
"T  c #A54800",
"R  c #AC4B00",
"E  c #B54600",
"W  c #B34C00",
"Q  c #BE4D00",
"!  c #A45402",
"~  c #AA5906",
"^  c #B45200",
"/  c #BA5300",
"(  c #B45B03",
")  c #BC5B00",
"_  c #B25F0C",
"`  c #906C15",
"'  c #BB6606",
"]  c #B06C10",
"[  c #865724",
"{  c #904E2A",
"}  c #8B642B",
"|  c #86682B",
" . c #956828",
".. c #8D7829",
"X. c #897338",
"o. c #957937",
"O. c #9F7A28",
"+. c #AD7728",
"@. c #B47E26",
"#. c #AC6D29",
"$. c #C14F00",
"%. c #C25300",
"&. c #C85700",
"*. c #C25D00",
"=. c #CA5C00",
"-. c #C56200",
";. c #CA6500",
":. c #C56901",
">. c #CD6A00",
",. c #C16D0D",
"<. c #D06600",
"1. c #D36E00",
"2. c #DC6D04",
"3. c #CB7A02",
"4. c #C87505",
"5. c #D57300",
"6. c #D97500",
"7. c #D57C01",
"8. c #DD7B00",
"9. c #D17909",
"0. c #C87715",
"q. c #D67514",
"w. c #E27E00",
"e. c #EB7503",
"r. c #FD7E03",
"t. c #F37907",
"y. c #F47918",
"u. c #E7770D",
"i. c #C87223",
"p. c #938234",
"a. c #B9872C",
"s. c #B59426",
"d. c #B88E32",
"f. c #A39339",
"g. c #B9953A",
"h. c #B9A136",
"j. c #DD8501",
"k. c #D5800D",
"l. c #DA8606",
"z. c #D78917",
"x. c #DE9819",
"c. c #CA931C",
"v. c #E48400",
"b. c #E98500",
"n. c #E58B00",
"m. c #EA8B00",
"M. c #FF8305",
"N. c #FE8B05",
"B. c #FF840C",
"V. c #FF8A09",
"C. c #F18F00",
"Z. c #EC9300",
"A. c #EB9B00",
"S. c #E79605",
"D. c #F39400",
"F. c #FE9303",
"G. c #F49C00",
"H. c #FC9C01",
"J. c #FF920B",
"K. c #FF9D0B",
"L. c #F39D0C",
"P. c #FF8F17",
"I. c #E69717",
"U. c #FF9C14",
"Y. c #FF9119",
"T. c #D7A915",
"R. c #CEA218",
"E. c #EDA201",
"W. c #EAA50D",
"Q. c #F3A300",
"!. c #FEA400",
"~. c #F3AC00",
"^. c #FFAC00",
"/. c #F4A10C",
"(. c #FAA50B",
"). c #FEAA0C",
"_. c #E5B307",
"`. c #F5B201",
"'. c #FFB301",
"]. c #F2BC01",
"[. c #FFBB00",
"{. c #FFB40C",
"}. c #FFB90A",
"|. c #F4B70A",
" X c #EDA31D",
".X c #EEA910",
"XX c #F8A715",
"oX c #FFB412",
"OX c #FFBB13",
"+X c #FFB51B",
"@X c #FFBC1B",
"#X c #F3B316",
"$X c #C68721",
"%X c #DC9924",
"&X c #C59530",
"*X c #E79B24",
"=X c #FD8E20",
"-X c #D7A633",
";X c #D5B934",
":X c #CDA727",
">X c #E9A525",
",X c #F2AE25",
"<X c #F5B325",
"1X c #FAB325",
"2X c #FEBC23",
"3X c #FDBE2B",
"4X c #F5B62B",
"5X c #E9AF30",
"6X c #EEB12B",
"7X c #FFC400",
"8X c #FFCB00",
"9X c #FFCF0C",
"0X c #FFD201",
"qX c #FFD60C",
"wX c #FFCC15",
"eX c #FFC21D",
"rX c #FBC519",
"tX c #FFD313",
"yX c #FFD31B",
"uX c #FFDA1A",
"iX c #FFC323",
"pX c #FECB25",
"aX c #FFC52B",
"sX c #FFCA2C",
"dX c #F6CA24",
"fX c #FFDA24",
"gX c #FFDC2D",
"hX c #FFD425",
"jX c #FCC535",
"kX c #FFCD31",
"lX c #FFCF39",
"zX c #FED234",
"xX c #FFDB32",
"cX c #FFD139",
"vX c #E2C534",
"bX c #FFE12A",
"nX c #FFE022",
"mX c #FFE232",
/* pixels */
"                                                                                                                                ",
"                                                                                                                                ",
"                                                                                                                                ",
"                                                                                                                                ",
"                                                                                                                                ",
"                                        f j }  .I a 0 w -                                                                       ",
"                                  e  .I.!.D.5.^ S Z Z Z Z N q 0 w - -                                                           ",
"                              e +.).}.G.;.R Y U Y Y U A D A R T ) ;._ P x t - -                                                 ",
"                          c m ,XpXiXz.R S Y Y Y U Y Y Y Y Y / / >.<.>.>.>.;.:._ P y w w                                         ",
"                        g o.jXlXaX0.Z C Z A U U Y Y Y U Y W / *.5.1.1.5.1.1.>.>.) R T H G q 5 w                                 ",
"                        X.kXzXkXk.Y U U Z Z Z C Z Z U A Y ^ ^ -.1.1.1.5.1.1.5.>./ ^ ^ R R 0. X1X4X-XX.>                         ",
"                      M jXkXiXI.Y Y Y U Y Y Y Y U U Z Z Z T R ) >.1.1.1.1.1.1.) / W R :.<XkXsXhXwX9X0XdXh.l h                   ",
"                    v %XOX'.Q.^ U Y Y Y Y Y U Y U Y Y Y Y / ^ -.>.;.:.;.;.>.*.^ / R 1.+XeXrX7X8X8X0XqXbXnX0X_.|                 ",
"                    | '.^.{.>.C C Z Z A U U Y U Y U Y Y R / / ;.1.5.1.1.1.-.R T Z :.!.'.[.7X0X7X[.`.#X#X`.[.7X8XR.g             ",
"                  c >XiXsX1X^ U U U A Z Z C Z Z Z A U U R W / ;.5.1.1.5.1.) W W ) !.}.[.7X8X[.S.7.1.>.>.1.5.j.~.0X_.f           ",
"                  X.kXkXsXz.U Y Y U Y Y Y U U U Z Z Z C H R R ) 1.1.1.1.-./ W W >XsXsX7X8X`.:.-.-.-.-.:.-.:.-.:.j.7XT.c         ",
"                g &XeXOX^.) U Y Y Y Y Y Y U Y Y Y Y Y U U R R R :.:.>.-.R ^ Y 9.sXsXwX0X[.;.=.1.1.>.5.1.1.5.1.1.<.v.yXf.        ",
"                ; (.^.'.Z.H C Z Z A U U Y Y Y Y Y Y Y Y Y ^ / W *.>.-.W R T R G.}.'.7X7X8.Q >.5.5.1.1.1.1.1.1.1.5.>.S.xXM       ",
"              d k '.'.'.8.A Y A Z Z Z C C Z Z U U U Y Y Y W ^ / / / / / ^ R 5.'.^.[.0X~./ Q ;.1.1.<.>.>.>.>.>.>.>.;.:.|.s.      ",
"              | (.'.'.^.>.Y Y U Y Y Y Y U U Z Z C C Z Z A Y ^ / / / ^ / W W H.'.'.7XfX3.Y E *.;.:.-.:.:.:.;.;.;.;.>.-.8.].      ",
"              a.[.'.'.^.!.m.8.>.) R Y U U Y Y Y Y U U A Z Z T T T R R ^ R >.'.'.}.fXrX*.Q Q >.1.1.1.1.1.1.5.1.1.1.1.5.1.`...    ",
"              k #.i.I.(.{.iXsXjX3X<XI.5.*.W Y Y U Y Y Y Y Y Y W W R R T H n.'.^.rXuXZ.Q Q Q ;.1.1.1.1.5.1.1.1.1.5.1.1.>.E.h.    ",
"                         .#. X+X+XoX'.'.^.!.D.8.:.) W Y U Y A W / / / W / !.'.'.7X7X1.W W Q / >.;.;.:.;.;.>.:.:.;.:.:.-.7.T.    ",
"                      [ { #.y.B.N.J.F.H.!.^.OXiXaX2X(.m.5.-./ R W W ^ R <.'.'.'.7X[.) E E E E -.>.>.>.;.<.>.;.>.>.>.:.1.1.~...  ",
"              [ { i.y.r.M.r.e.6.>.:.:.:.>.4.4.z.L.!.'.'.'.'.!.D.v.5.:.^ m.'.'.'.8X`.%.Q Q Q W &.<.1.1.5.1.1.5.5.5.6.5.8.8.`...  ",
"            O.H.F.J.B.B.r.t.6.<.' ~ F 9 6 2 2 2 7 F ~ 3.n.H.!.'.'.'.^.!.!.'.'.'.7X~.>.>.<.5.7.l.S.W.E.E.Q.~.`.@XOX[.[.[.7X7XT.  ",
"            k !.'.!.).XXXXN.V.B.r.2.( F 7 4 2 1 1 3 4 4 8 p L ' l.D.!.'.'.'.'.'.8X7X7X7X7XtXgXxXmXfX8X8X7XqXfXhX7X7X[.[.[.'.x.s ",
"            ; c.'.^.@XjX@X'.!.!.XXU.V.B.r.e.-.! G u 4 4 3 4 3 3 4 7 G ! 4.j.H.^.[.'.'.^.^.#X.XXXL.A.Z.n.n.n.m.N.F.F.F.F.H.!.z.s ",
"            * a.'.^.!.:.>.v.H.@XkXjXaX).XXU.J.V.B.t.2.-.! G 7 4 3 3 3 3 3 6 u K K G p p u 9 7 9 i J ( <.2.t.r.N.F.!.oXeX7X8XR.  ",
"            O d.sXOX!.R V Z ) :.9.I.L.{.aX@X'.!.!.K.U.J.B.r.t.2.' P i 8 4 3 2 3 4 4 4 4 7 G L *.2.t.M.F.(.).'.[.7XtXgXyX7X7X+.  ",
"            + d.pXiX!./ D A ) ) ) ^ )  XiXQ.A.'.'.iXkX2X).H.K.J.V.B.r.y.0.] K i G P ,.q.y.M.N.H.!.'.[.pXgXuX7X[.'..XA.'.'.}.m < ",
"            o d.sXiXH.Y A S / -.-.-.-./.!.p u Q.iX XI./.!.'.^.'.!.!.K.U.P.Y.Y.=XY.Y.J.H.).}.7X7X7X7XtXpX#XA.j.8.5.5.8.^.}.pXX.= ",
"            o d.sXOX8.D A S / -.*.-.;.D.!.u u 2XkXl.^ / -.>.8.D.!.).aXaX'.!.H.H.'.[.7XyXfX0X[.`.E.Z.j.5.5.5.5.6.6.5.5.!.iXzXb % ",
"            o d.eX!.R B D D W *.-.-.-.D.Q.7 ` kX3X7.-.*.) ) ^ ^ ) :.k.n.G.^.'.[.8X7X7X#XA.n.8.5.6.6.6.8.6.5.5.5.5.6.5.H.eXkXX.O ",
"            + d.'.6.V A A A A ( ) *.*.8.A.` +.pXL.>.-.-.-.-.*.*.) ) ^ ^ v.!.^.'.[.'.'.m.<.5.8.8.7.5.5.5.7.8.8.8.8.8.6.b.OXkXm + ",
"            + a.H.W A S A A S / -.) ) ) 9.#X<XS.5.*.-.-.-.-.-.-.-.-.*.>.!.!.!.oXeX'.'.H.>.5.5.5.5.8.8.8.8.8.8.8.w.8.8.5.!.aXn X ",
"            + a.b.V A S S S A E -.-.-.-.*.;.;.*.) ) *.*.-.-.*.-.-.-./ v.!.^.'.@XkX@X'.H.>.5.8.8.8.8.8.8.8.8.8.8.5.5.5.<.Z.eXn X ",
"            o d.v.B Z D A A S S / -.-.-.-.-.-.-.*.*.) ) ) ) *.*.*.-.) m.^.'.}.@XkXaX'.H.;.8.w.8.w.8.8.8.5.5.5.6.8.8.8.5.v.OXb X ",
"            o d.oXW V D A Z D Z Y *.-.-.-.-.=.-.-.-.-.-.-.*.*.) ) ) R 8.).'.'.@XkXsX'.b.&.6.8.6.5.5.5.5.8.8.8.8.8.8.8.5.m.}.X.X ",
"            o d.pXZ.D D A S A A D W ) ) ) *.-.-.-.-.-.-.-.-.-.-.-.*.) >.!.'.'.2XkXaX^.;./ <.5.5.8.8.8.8.8.8.w.8.8.8.5.8.!.@Xm X ",
"            o d.pXoX/ V A S S S A Y / *.*.) ) ) ) ) -.*.-.-.-.-.-.-.=.*.F.'.'.@XkXiXD.Q %.;.8.w.8.8.8.8.8.8.6.5.5.5.1.D.}.sXn X ",
"            + d.pXOX6.V A S A A S A Y ) -.-.-.*.*.*.) ) ) ) *.*.-.-.-./ w.^.}.@XkX@X5.%.&.=.5.w.8.8.8.5.5.5.5.8.8.8.m.'.iXzXn X ",
"            o a.@X^.w.B V Z D A A S A Y %.-.-.-.*.-.-.*.*.*.) ) ) ) *.) -.!.'.@XkX^.=.%.&.&.=.1.5.5.5.8.8.8.8.8.8.5.H.'.aXkXn X ",
"            : -X@X'.8.V A D D A Z D D A Y / -.-.-.-.-.-.-.-.-.-.-.-.) / R D.^.@XsX'.<.E Q Q %.;.8.8.8.w.8.8.8.8.8.8.!.'.iXzXn X ",
"            f }.@XaX<X%X,.W A Z A A A A Z D Y ) *.-.-.-.-.-.*.-.-.-.-.*.) F.'.@XkX@XD./ $.&.&.&.<.8.8.8.8.8.8.8.5.1.!.^.'.iXm X ",
"          % r (.^.'.OXkXlX3X>Xz.' R A A A A A U ^ ) ) ) *.*.-.-.-.-.*./ 8.!.'.@XkXiX'.b.$.%.&.&.=.=.1.5.5.5.5.6.6.5.D.'.}.eXo.X ",
"            $ , j +.-XjXiX'.OXkXjX2X>X0.' R A D A Y / ) ) ) ) ) ) *./ >.H.^.'.@XkXaX'.^.<.%.%.%./ Q %.&.;.<.<.1.1.7. XkXpXyX:X# ",
"                  + % > k a.5X2X'.'.[.@X2X1X*X0.( R D Y E ) *.-.) ) ^ D.!.'.'.2XkXsX'.'.b.E / %.%.%.$.Q %.-.l.I.<XpXxXfX0X0XR.@ ",
"                        < + & h } a.L.!.'.'.}.@X2X<X%X0.( U U E / / >.!.!.'.'.@XkXaX'.'.H./ Q Q $.*.5.I.<XeXyX8X0XbXfX7Xs...e o ",
"                                  O : f  .$X/.'.'.iXcXcXjX<X%X,.R A 1.!.!.!.'.@XsXOX'.'.D.&.>.z.>X2XzXxX0X0X8X8X;Xf.l < O +     ",
"                                        % O < x o.-XjXkXrX'.}.@XaX5X,X@X'.^.!.^.'.'.{.2X2X4XcXxXtXfXgX8X_.s.b d % %             ",
"                                                + $ > z +.I.!.OXkXzXiX2XiXaX2X@XiXsXsXyXgXmXbXqXdX;Xp.g = + =                   ",
"                                                      O o # e n g.5X^.'.'.'.OXeX9X8X0XuXmXvXs.m > $ &                           ",
"                                                              # + : f } $X/.^.[.7X].:Xp.h & O                                   ",
"                                                                        & < f | l , $                                           ",
"                                                                                                                                ",
"                                                                                                                                ",
"                                                                                                                                ",
"                                                                                                                                ",
"                                                                                                                                ",
"                                                                                                                                ",
"                                                                                                                                ",
"                                                                                                                                ",
"                                                                                                                                "
};
