/* XPM */
static char *__PhotoRoom_png_PhotoRoom1674145471[] = {
/* columns rows colors chars-per-pixel */
"64 64 244 2 ",
"   c None",
".  c #351B01",
"X  c #3B1E01",
"o  c #3E2102",
"O  c #010E2E",
"+  c #04142D",
"@  c #09172E",
"#  c #0B192E",
"$  c #141D2E",
"%  c #131E30",
"&  c #261C26",
"*  c #1A242E",
"=  c #1B282E",
"-  c #1C2631",
";  c #252A2A",
":  c #3B2628",
">  c #39392D",
",  c #242B31",
"<  c #2C3231",
"1  c #3B3933",
"2  c #363631",
"3  c #2A332B",
"4  c #411E02",
"5  c #442302",
"6  c #4D2B01",
"7  c #4D2303",
"8  c #542C02",
"9  c #572903",
"0  c #573101",
"q  c #5A3201",
"w  c #5E2D1B",
"e  c #682E04",
"r  c #643402",
"t  c #6B3B01",
"y  c #6B3304",
"u  c #743E00",
"i  c #7C3B04",
"p  c #773506",
"a  c #743617",
"s  c #482926",
"d  c #4C362B",
"f  c #5D3327",
"g  c #443B30",
"h  c #572E2D",
"j  c #66372C",
"k  c #793926",
"l  c #3E4123",
"z  c #53441F",
"x  c #744102",
"c  c #7C4403",
"v  c #7E411F",
"b  c #564829",
"n  c #595225",
"m  c #494633",
"M  c #4F4D2F",
"N  c #65482C",
"B  c #685829",
"V  c #775A2E",
"C  c #685B36",
"Z  c #764D2E",
"A  c #786728",
"S  c #797031",
"D  c #833D04",
"F  c #883B0A",
"G  c #9C3400",
"H  c #9D3B00",
"J  c #953200",
"K  c #8D3E16",
"L  c #A43C00",
"P  c #A83E00",
"I  c #A03700",
"U  c #893E22",
"Y  c #834501",
"T  c #8C4304",
"R  c #8C4A01",
"E  c #9C4605",
"W  c #944E00",
"Q  c #954705",
"!  c #895607",
"~  c #9B5100",
"^  c #965B08",
"/  c #92411B",
"(  c #A54100",
")  c #A94200",
"_  c #A54A00",
"`  c #AC4B00",
"'  c #AC4E0A",
"]  c #B24600",
"[  c #B44B00",
"{  c #BE4D00",
"}  c #A35400",
"|  c #AC5702",
" . c #B55401",
".. c #BB5300",
"X. c #B35C01",
"o. c #BC5B00",
"O. c #B45308",
"+. c #BC5309",
"@. c #BF590A",
"#. c #9D6A0B",
"$. c #BD6200",
"%. c #BA6505",
"&. c #B56712",
"*. c #865925",
"=. c #A75828",
"-. c #B05C26",
";. c #87672B",
":. c #976D2B",
">. c #8D772F",
",. c #A67528",
"<. c #B37A26",
"1. c #AE6C27",
"2. c #C04F00",
"3. c #C25300",
"4. c #C85700",
"5. c #C25D00",
"6. c #C95B05",
"7. c #D85D0C",
"8. c #C95718",
"9. c #C56100",
"0. c #CA6500",
"q. c #C46A00",
"w. c #CD6A00",
"e. c #CD610B",
"r. c #D36E00",
"t. c #D86709",
"y. c #CD7400",
"u. c #CC7B00",
"i. c #D57300",
"p. c #D97600",
"a. c #D37901",
"s. c #DD7B00",
"d. c #DA7B0C",
"f. c #DE6F1F",
"g. c #C97915",
"h. c #D67512",
"j. c #E66D09",
"k. c #F26C0E",
"l. c #EB7402",
"z. c #E77708",
"x. c #FD7D03",
"c. c #FF740D",
"v. c #FF7C0D",
"b. c #F47B07",
"n. c #EF7516",
"m. c #D76C20",
"M. c #998738",
"N. c #8A8039",
"B. c #AD8D26",
"V. c #A88833",
"C. c #B99538",
"Z. c #B68A2A",
"A. c #BBA132",
"S. c #B6901F",
"D. c #DB8300",
"F. c #D88209",
"G. c #D78B18",
"H. c #D7921C",
"J. c #CE951C",
"K. c #E48300",
"L. c #E48D01",
"P. c #EC8B00",
"I. c #E98600",
"U. c #FF8305",
"Y. c #FF8B06",
"T. c #FF830B",
"R. c #FF8A0B",
"E. c #F38B03",
"W. c #E59200",
"Q. c #EC9300",
"!. c #ED9C00",
"~. c #EE990B",
"^. c #F49300",
"/. c #FD9602",
"(. c #F39C02",
"). c #FE9D03",
"_. c #FF930B",
"`. c #FA9B0E",
"'. c #FD8413",
"]. c #FF8B14",
"[. c #FA8A1A",
"{. c #E59816",
"}. c #FF9312",
"|. c #FF9915",
" X c #EA8214",
".X c #D1A517",
"XX c #EEA200",
"oX c #ECA708",
"OX c #F3A301",
"+X c #FEA401",
"@X c #F5AA00",
"#X c #FFAC00",
"$X c #FDA70B",
"%X c #E3B109",
"&X c #FFB301",
"*X c #FEBB01",
"=X c #FFB50B",
"-X c #FFB90B",
";X c #F2B205",
":X c #EFA816",
">X c #F9A716",
",X c #FFB613",
"<X c #FFBB12",
"1X c #FFBD1A",
"2X c #F9B41C",
"3X c #C48925",
"4X c #D49A29",
"5X c #C49A35",
"6X c #C69933",
"7X c #CA912A",
"8X c #E39B22",
"9X c #D3AF30",
"0X c #ECAA27",
"qX c #F1AB24",
"wX c #EBB62B",
"eX c #FCB322",
"rX c #FEBB23",
"tX c #FCBD2A",
"yX c #F5B527",
"uX c #E2B237",
"iX c #FFC300",
"pX c #FFCC00",
"aX c #FAC20A",
"sX c #FFD001",
"dX c #FFD50C",
"fX c #FDC21E",
"gX c #FEC717",
"hX c #FFD414",
"jX c #FFD718",
"kX c #FFC324",
"lX c #FECD23",
"zX c #FFC52C",
"xX c #FFCA2D",
"cX c #FFD525",
"vX c #FFDA23",
"bX c #FFDA2B",
"nX c #FFD729",
"mX c #E7C732",
"MX c #FFCC32",
"NX c #FBC534",
"BX c #FFD634",
"VX c #EEC321",
"CX c #FFE129",
"ZX c #FFE332",
/* pixels */
"                                                                                                                                ",
"                                                                                                                                ",
"                                                                                                                                ",
"                                        B V ,.C.5X5XC.V.>.S                                                                     ",
"                                  3 C 6X>X&X&X<XMXBXMXzXtXwXC.g =                                                               ",
"                              $ Z 9XMXBXxXkX-X+X^.a.$.` _ _ | _ F a w s : & & ;                                                 ",
"                          m N J.#X&X<XkXxXyXF.o.) ) ( ( P L H H J H H L ( H H F F a w f d : b           ;.B b n                 ",
"                        z ,.#X&X&X&X&XQ.q.` ) ( ) ) ) ) ) ) ( ) ( ( E H H G H L ) ....0.i.w.q.&.<.<.4XoX#X&X#X{.;.m             ",
"                        n #X&X#X#X&X+Xa.%._ E H H H P ( ) ) ) ) ) ) ( ) ( ) P L ( _ _ o.w.s.{.rXMXMXlX*XiXpXpXpXpX.Xn           ",
"                        ;.).+X#X&X1XkXxXMXtXqXL.y.$.` E L H L ( ) ) ) ) ) ) ( ) `  .[ 9.P.+X<XkXxXgXpXpXpXpXpXsXpXpX%XA         ",
"                          8.@.t.b.].|.eX2X2X&X*X&X&X#XOX{.G.%.X._ ( L L ( ) ) ( [  .r.).#X&X#XgXvXvXhX*X!.L.D.XX*XpXsX.X        ",
"                          U 7 5 9 p K O.t.b.R._.).,XrXkXfX-X&X#XOXW.a.q.X._ ( L  .K.#X&X&X&XiXjXvX2Xu.5.{ ..o.9.s.;XsXpX.X      ",
"                          v p . . . . . X 9 y T O.e.n.R./.).#X#X&X&X&X&X#X+XQ.D.Q.#X&X&X&XiXpX*Xa.3.] ] 3.r.r.9.0.s.VXCX9X      ",
"                            U X . . . . . . . . . X 7 e F ' 6.n.T._.).#X#X&X&X&X&X&X&X&XpXiXW.3...{ { [ 0.r.r.r.9.r.W.cXCX      ",
"                            j e . . . . . . . . . . . . . . o r i Q O.e.z.T._.).+X#X*XpX*Xs...) { { 3.0.9.r.i.r.q.9.p.*XsX      ",
"                            s K X . . . . . . . . . . . . . o 6 6 5 6 8 r p T ' e.b.&XpX@X3.{ [ ] { 0.r.q.0.r.r.i.9.w.!.sX      ",
"                              k 9 . . . . . . . . . . . . . 5 6 8 6 6 6 6 6 6 6 6 D '.*XpXs.{ { ) ..r.r.w.9.w.i.r.w.$.D.pX      ",
"                              f F . . . . . . . . . . . . . 5 6 6 6 6 6 6 6 6 6 6 6 O.).pX&X0.{ { o.r.r.r.w.9.i.r.i.9.y.iX      ",
"                                U 7 . . . . . . . . . . . o 6 6 6 6 6 6 6 6 6 6 6 6 q j.&XpX!...3.9.0.r.i.r.9.w.r.r.r.9.iX      ",
"                                h p . . . . . . . . . . . 5 6 6 6 6 6 6 6 6 6 6 6 6 6 D R.lXvXD.5.i.9.w.r.i.w.9.r.r.i.i.*X      ",
"                                : K X . . . . . . . . . o 6 6 6 6 6 6 6 6 6 6 6 6 6 6 8 O.>XbXlXi.r.w.9.r.r.r.0.q.r.r.p.iX      ",
"                                  k e . . . . . . . . o 6 6 8 6 6 6 6 6 6 6 6 6 6 6 6 6 q j.rXZX2Xi.r.q.0.r.i.r.9.w.r.F.aX      ",
"                                  : K . . . . . . . . 7 6 6 6 6 6 6 6 6 8 6 6 6 6 6 6 6 6 F R.gXjXW.r.r.9.w.i.r.w.9.w.oX9X      ",
"                                    U 9 . . . . . o 6 6 6 6 6 6 6 6 8 6 6 6 6 6 6 6 6 6 6 8 O.$XpX*Xs.i.w.9.i.r.r.q.q.lXN.      ",
"                                    s F . . . . 4 7 6 6 6 6 6 6 6 6 6 6 6 6 6 6 6 6 6 6 6 6 r j.&XpXOXi.i.9.w.r.r.r.y.VX>.      ",
"                                    % / 4 X 4 5 6 6 6 6 6 6 6 6 6 6 6 0 6 6 6 6 6 6 6 6 6 6 6 T R.iXpXW.r.w.9.r.r.w.!.B.        ",
"                                    + j p 4 5 6 6 6 6 6 6 6 6 6 6 6 6 6 6 6 6 6 8 6 6 6 6 6 6 8 +.>XnXlXs.i.0.q.r.p.;XA         ",
"                                    % h f.7.+.Q i r 8 6 6 6 6 6 6 6 6 6 6 6 6 6 6 6 6 6 6 6 6 6 y z.1XcX;Xi.r.9.0.@XV.          ",
"                              *.Z -.f.].].'.x.v.c.k.7.O.E i q 8 6 6 7 6 6 6 6 6 6 6 6 6 8 6 6 6 6 F Y.iXpXL.r.w.u.wXS           ",
"                      d Z =.f.'.].'. Xd.d. X[.'.'.T.T.v.v.c.k.7.+.E i r 0 6 6 6 6 6 6 6 6 6 6 6 6 8 @.+XpX*Xs.r.@XA             ",
"              N N =.f.v.U.T.T.s.r.q.%.X.~ } } %.q.r.z.'.'.T.T.T.v.c.c.k.7.@.E i e 9 6 6 6 6 6 6 6 6 y z.&XpX@X!.S.B             ",
"      b j =.m.v.v.U.b.l.r.q.$.$.X.} R x u Y R W W ~ ~ } | $.w.l.l.U.U.T.T.T.v.c.k.t.+.E i r 8 6 6 6 6 F R.iXpX%X<               ",
"    3 1.).R.Y.U.x.l.r.0.$.} R u q 8 6 6 0 q q t t x Y R W ~ E ^ } | X.0.i.l.x.x.T.T.v.v.c.k.t.+._ Y r q 6.OXpXS.;               ",
"    + <.&X#X+X>X|._.U.x.z.o.Y t 8 6 6 6 0 q q 0 0 q 0 q r t x Y R R W ~ ~ } | X.$.r.l.b.x.U.U.v.c.c.k.7.7.T.7X<                 ",
"    + N #X#X,XxX1X&X+X$X|._.T.v.j.$.W i y q 0 0 q q q q 0 q q q q r t x c R R W ~ ~ ~ ~ | o.r.x.T.T.T.R.Y._.d ;                 ",
"    @ 1 >X#X#Xi.i.P.#XrXNXxX2X+X|._.R.v.z.w.| Y u q q 0 0 q q q q q q 0 0 q r r x Y ~ o.r.l.b.U./.).,X1XiXiX1                   ",
"    + 1 zX1X#Xo.J L $.a.{.:X$XkXkX#X+X+X_._.R.T.b.r.X.R x q q q 0 8 0 8 0 t c Q o.t.U.R._.>X&X*XiXjXbXsXpX.X-                   ",
"    @ 1 tXzX&X9.L (  .o. . .F.kX#XOX&X&XzXNX2X)._._.R.'.v.d.&.^ c x ! &.h.z.T.R./.+X#XaXcXcXpXiX*X:X@X&X&X3X+                   ",
"    + 1 tXkX#X .L P 5.5.9.5.D.=X#.x OXrXqX:X+X#X&X#X#X+X_.|.].].[.[.].}.).$X-X*XiXpXpXcXfXXXW.s.i.r.P.&XfX5X@                   ",
"    + 1 tXkX^.P P ) ..9.9.9.s.#X! x qXxXp.X.o.w.s.^.+X#XzXzX#X+X).$X&XiXgXvXpXiX&XXXL.D.s.i.i.i.p.i.K.=XxX5X*                   ",
"    + 1 zX&Xw.J H L [ 9.9.5.p.#X! ! MXtXr.5.o.o. . .5.w.G.Q.+X#X&XiXpXpX1XXXL.s.i.i.p.p.p.p.i.i.i.i.s.=XMX5X@                   ",
"    @ 1 2X^.( L L H ( o.o.5.w.(.#.#.xX~.0.5.9.5.9.5.o.o. . .P.#X#X*X*X*XP.r.i.s.s.i.i.i.i.s.s.s.s.s.i.+XlX5X@                   ",
"    # 1 $Xr.I P L P ) o.5.o.o.y.qXyX~.i.9.0.9.9.0.5.9.5.5.i.+X#X#X1X=X#X+Xr.i.i.i.p.s.s.s.s.s.s.s.z.i.P.kX5X$                   ",
"    # > (.[ I P P P P { 9.9.9.5.q.y.$.o.o.5.5.9.9.9.9.9.o.P.#X#X=XxXkX&X+Xr.i.s.s.s.s.s.s.s.s.s.p.i.i.i.-X5X-                   ",
"    + 1 :X( J L L L P ) 5.0.0.9.0.5.9.9.5.o.o.o.o.5.9.9.o.E.#X&X=XxXxX&X).0.p.s.s.z.s.s.i.i.i.p.p.s.s.i.+X6X=                   ",
"    + 1 eXi.J L I H L L [ 9.5.9.5.5.0.5.9.9.9.5.5.o.o.o. .I.#X=X=XxXMX-X^.4.s.s.p.a.i.i.p.s.s.s.s.D.s.p.+X6X;                   ",
"    + 2 zX$X` I L P L H P  .o.o.5.0.0.9.5.0.9.9.0.5.0.9. .s.#X=X=XxXMX&Xr.{ w.i.p.s.s.s.s.s.s.s.s.s.r.P.*X6X,                   ",
"    + 1 tXrXr.I P P L P P [ 5.o.o.o.o.o.5.5.9.9.5.0.5.5.o.0.+X&X=XxXxX+X4.3.r.s.s.s.s.s.s.s.s.p.i.i.p.+XkX5X,                   ",
"    + 1 tXfXP.L L L L L P P [ 0.9.9.5.5.o.o.o.o.5.9.9.9.5.5.E.&X=XxXkXE.3.4.4.p.s.s.s.p.i.i.i.s.s.i.(.-XMX5X=                   ",
"    + 2 rX&X^.H G L L L L P P +.9.9.0.5.9.9.5.5.o.o.o.o.5.5.i.#X=XxX1Xi.2.4.4.0.i.i.a.p.s.s.s.s.s.s.#X<XMX5X<                   ",
"    O C rX=X^.L L L L G H G L L ..5.0.5.9.5.0.5.9.9.5.o.o. .o.+X=XxX1Xp.] 2.3.3.w.s.z.s.s.s.s.s.p.K.#X<XlX5X2                   ",
"    O Z.1XrXtXH.%.` L L L L L H H ) o.5.5.0.5.0.0.9.9.0.5.o.9.+X#XxXkX).4.2.4.4.4.i.s.s.s.s.s.p.i.s.#X&XfX6X                    ",
"    O ,.&X&X<XMXMXtX8Xg. .( L I P L (  .o.o.o.5.5.5.9.9.5.o.P.#X=XxXxX&XP.2.3.4.4.4.r.i.p.i.i.i.i.p.#X&X-X4X                    ",
"      * b :.4XNXzX*XfXMXtXqXG.q.) L I P [ o.o.o.o.o.o.9...r.+X#X=XxXMX=X#Xr.2.3.3.3.{ 4.6.w.r.r.i.s.eXxXcXfX                    ",
"          + % g V 3XwXfX&X=X<XrXyX8Xg. .P L ] +.5.5.5. . .).#X&X-XxXMX,X&XK.] 2.3.3...2...5.a.{.yXMXZXdXpXaX                    ",
"                O + , N ,.H.#X&X&X-X1XtX0XG.%._ P ` ....r.+X+X&X=XxXxX=X&X^.3.2.2.2.0.F.:XtXgXpXdXCXhX%XB.B                     ",
"                    * O O % g ;.3X$X#X&XkXBXMXtX8Xg. .L r.#X+X#X=XzXkX&X&X^.5.r.G.qXxXbXjXsXsXpXuXM.M - *                       ",
"                            % O @ < N V.uXMXzX-X=X1XtXuXqX<X#X#X+X&X&X-X1XeXyXMXvXjXCXjXiX.X>.m = =                             ",
"                                    O O - m :.7XOX=XxXBXkXrXzXrX1X1XxXlXcXbXZXCXdXmXA.S < # >                                   ",
"                                          O O # 2 V C.0X&X&X&X-X1XgXpXpXjXBXmXB.C < @                                           ",
"                                                  + + , b :.H.+X&XpXpX9XM.M , #                                                 ",
"                                                        # O $ 2 V ;.m - =                                                       ",
"                                                                                                                                ",
"                                                                                                                                "
};
