/* XPM */
static char *__PhotoRoom_png_PhotoRoom1674145470[] = {
/* columns rows colors chars-per-pixel */
"64 64 240 2 ",
"   c None",
".  c #36252E",
"X  c #3F3E2F",
"o  c #2A2428",
"O  c #4B2A01",
"+  c #522C02",
"@  c #5A2F02",
"#  c #573101",
"$  c #5A3201",
"%  c #5F3F1F",
"&  c #4B281F",
"*  c #643401",
"=  c #6E3503",
"-  c #643902",
";  c #6C3B01",
":  c #733C01",
">  c #7C3A04",
",  c #713604",
"<  c #7B3713",
"1  c #66321B",
"2  c #542E2C",
"3  c #4A362C",
"4  c #5A3629",
"5  c #443B30",
"6  c #6B3D28",
"7  c #763A2A",
"8  c #7B4201",
"9  c #754103",
"0  c #5A492F",
"q  c #494334",
"w  c #544330",
"e  c #68442A",
"r  c #76592E",
"t  c #67562F",
"y  c #7E6B39",
"u  c #843D04",
"i  c #8A3B09",
"p  c #9C3500",
"a  c #9C3B00",
"s  c #943501",
"d  c #A43C00",
"f  c #A83E00",
"g  c #A03700",
"h  c #863E25",
"j  c #824501",
"k  c #8C4304",
"l  c #8C4A00",
"z  c #8C4E08",
"x  c #954506",
"c  c #9E4100",
"v  c #944E00",
"b  c #984805",
"n  c #9B5100",
"m  c #94540A",
"M  c #984417",
"N  c #874B1B",
"B  c #A64100",
"V  c #A94200",
"C  c #A54903",
"Z  c #AC4B01",
"A  c #AC4E09",
"S  c #B14500",
"D  c #B34C00",
"F  c #BC4C00",
"G  c #A35401",
"H  c #AC5401",
"J  c #AB5804",
"K  c #B45400",
"L  c #BB5400",
"P  c #B35C00",
"I  c #BD5B00",
"U  c #B45208",
"Y  c #BD5409",
"T  c #A15816",
"R  c #A86C00",
"E  c #BD6200",
"W  c #BF6A00",
"Q  c #B9630B",
"!  c #B47603",
"~  c #B26916",
"^  c #815F2D",
"/  c #94522B",
"(  c #894526",
")  c #AE5B28",
"_  c #8F682C",
"`  c #986D2A",
"'  c #8F7629",
"]  c #917526",
"[  c #8B7635",
"{  c #997833",
"}  c #B37D27",
"|  c #C14F00",
" . c #C25400",
".. c #C85700",
"X. c #C25D00",
"o. c #C65B0A",
"O. c #CD5C05",
"+. c #DB5F1F",
"@. c #D85F0B",
"#. c #C56200",
"$. c #CB6601",
"%. c #C56A00",
"&. c #CD6A00",
"*. c #C6660C",
"=. c #D36E00",
"-. c #D4640A",
";. c #DA6907",
":. c #CC7100",
">. c #C77605",
",. c #D57400",
"<. c #D97500",
"1. c #D67B01",
"2. c #DD7B00",
"3. c #D17F0F",
"4. c #C77715",
"5. c #DA7015",
"6. c #E16F00",
"7. c #E5660D",
"8. c #E86C0B",
"9. c #F46C0D",
"0. c #E47102",
"q. c #EB7402",
"w. c #E17B00",
"e. c #EA7509",
"r. c #F47902",
"t. c #FD7D05",
"y. c #FD740D",
"u. c #F37A09",
"i. c #FF7B0C",
"p. c #F07700",
"a. c #E6771B",
"s. c #FF7E12",
"d. c #F77917",
"f. c #C86724",
"g. c #D16F22",
"h. c #BF981E",
"j. c #9D8D38",
"k. c #9E8026",
"l. c #BC8629",
"z. c #BA8A2E",
"x. c #BD8325",
"c. c #B59526",
"v. c #A58537",
"b. c #B98E31",
"n. c #B99636",
"m. c #A78B2D",
"M. c #DC8302",
"N. c #DF8900",
"B. c #D68A19",
"V. c #D79719",
"C. c #C2821F",
"Z. c #E28400",
"A. c #EA8600",
"S. c #EB8C00",
"D. c #E68904",
"F. c #FF8205",
"G. c #FF8C06",
"H. c #FF830B",
"J. c #FF8C0B",
"K. c #F48003",
"L. c #EB9401",
"P. c #E99B00",
"I. c #E49300",
"U. c #F19200",
"Y. c #FD9503",
"T. c #F59A01",
"R. c #FD9C02",
"E. c #FF9309",
"W. c #FF9B0C",
"Q. c #EA8017",
"!. c #FC8513",
"~. c #FE8913",
"^. c #FC8716",
"/. c #EB9C13",
"(. c #E69A18",
"). c #FF9313",
"_. c #FF9C14",
"`. c #F39213",
"'. c #CAA21C",
"]. c #D1A515",
"[. c #EDA300",
"{. c #F3A400",
"}. c #FEA401",
"|. c #F4AA00",
" X c #FFAC00",
".X c #F7A50B",
"XX c #E8B708",
"oX c #FFB301",
"OX c #FEBC01",
"+X c #FFB30B",
"@X c #F8B807",
"#X c #EBA617",
"$X c #FCA718",
"%X c #FFB513",
"&X c #FFBC13",
"*X c #FFB41C",
"=X c #FFBD1B",
"-X c #F2B41D",
";X c #E6B219",
":X c #C58823",
">X c #C19627",
",X c #D49F30",
"<X c #D09229",
"1X c #E09620",
"2X c #D7A628",
"3X c #D7AC36",
"4X c #CFB433",
"5X c #EBA724",
"6X c #F4AC23",
"7X c #FDB323",
"8X c #FEBC24",
"9X c #F7B729",
"0X c #E5B233",
"qX c #E9B32F",
"wX c #FEC300",
"eX c #FFCC00",
"rX c #FFC60C",
"tX c #FFCC0F",
"yX c #FFD200",
"uX c #FFD20E",
"iX c #FEC11D",
"pX c #FFCD1C",
"aX c #FAC21A",
"sX c #FFD513",
"dX c #FFD31C",
"fX c #FFDA18",
"gX c #DDC235",
"hX c #FFC223",
"jX c #FFCB26",
"kX c #FFC42A",
"lX c #FFCA2C",
"zX c #FFDD2C",
"xX c #FFD625",
"cX c #FBC433",
"vX c #FFCE33",
"bX c #F7C435",
"nX c #FFD134",
"mX c #FFDB34",
"MX c #FFE22D",
"NX c #FFE025",
/* pixels */
"                                                                                                                                ",
"                                                                                                                                ",
"                                                                                                                                ",
"                                                                                                                                ",
"                                                                                                                                ",
"                                        r l.(.#Xl.e o                                                                           ",
"                                    y 0XlXlXkX$X2.I c i < 1 & &                                                                 ",
"                                  n.vXnXnX9X>.Z V B V V V V S f c a i < 1 4 %                                                   ",
"                                ,XkXlXlX#XH a s a a a B B V B V V V V U L $.=.%.Q T N 6 2                                       ",
"                              x.oXoXoXD.D d V B B B c a a a a d B B V L L &.=.,.=.<.<.=.&.%.4.2X0X3Xn.[ 0                       ",
"                            [ =X=X=XT.D B V V B V V V V B B B a a a B Z K $.=.,.,.=.=.=.2.R.oXoXOXwXeXeXeX@Xh.t                 ",
"                          q bXvXnXkXP s a a B B V B V V V V V V B V Z Z K $.%.$.$.&.=.S.+XOXoXOXeXeXeXeXeXyXyXdXj.              ",
"                          :X=X&X=X1.f V B d c a a a a B B B B B V V Z L L =.=.=.=.&.(.vXvXkXwXeXeX[.N.N.Z.P.aXzXfXc.            ",
"                        0  XoXoXT.D V V B V V V B d B a a a a a a B Z L L =.=.,.,.S.&X8XhXrXeXOX1. .#.#.#.&.,.P.wXeX'           ",
"                        :XoXoX X%.a B B B V V B V V B V B V B B d a c B Z E =.=.Z. XoXoXwXsX@X&.F $.=.=.&.#.%.$.Z.wXwXX         ",
"                        .XoXoX}.I C a a s a a d d B V V V V B V V B Z K Z L $.,.}.oXoXaXzXaXI V  .=.,.=.=.=.&.%.#.M.eXk.        ",
"                      5  XoXoX X X.X#X(.3.%.K B a a a a a B B V V B V D K L $.T.oXoXoXdXwX&.F F I #.$.=.=.=.=.=.=.$.|.XX        ",
"                        g.J.R..X*X8XlXlX8X%X XT.L.M.:.%.P B a a a d B Z F L 2.oXoXoXwXwX,.| F  .=.=.%.#.%.=.=.=.=.=.N.wX        ",
"                          7 +.7.;.e.!.~.E.}. X X+X=XkX8X+XT.U.Z.:.E H B C I }.oXoXoXeXI.D S F  .=.=.=.=.$.%.#.=.=.=.,.jX        ",
"                            . 7 M > = u b U -.e.!.)._.R.}. XoXoXoX X X}.U.T.oX XoXwXoX..F D V F =.=.=.=.=.=.$.%.#.&.=.jX        ",
"                                . h x * O O + @ = u x U o.8.u.J.E.R.}. XoXoXoXoXwXeXP...| F F L #.%.&.=.=.,.=.=.&.%.I @X        ",
"                                    2 ( i $ O O O O O O + @ * > x H *.;.u.H.E.R.oXeXeXOXI.$.|  .=.&.#.%.$.=.=.=.=.=.&.{.        ",
"                                        2 M > $ + O O O O O O O O O + @ * > i A 5.E. XwXyXtX#X1.,.&.=.&.%.#.%.=.=.=.&.|.        ",
"                                          6 +.7.O.U b > * @ O O O O O O O O O O @ i o.K.$XjXMXmXhX[.2.,.=.=.$.#.%.=.,.-X        ",
"                                e 4 / f.a.^.^.^.~.H.H.y.9.7.o.A i > * + O O O O O O + , A 8._.8XtXeXwX{.D.,.=.=.$.#.$.;X        ",
"                        . 7 ) g.d.!.~.~.D.1.*.>.5.Q.!.~.!.~.H.i.i.y.8.@.| C u = @ + O O O * x -.J. XOXeXdXaXP.2.=.=.1.V.        ",
"                3 ( ) a.s.H.F.K.2.,.%.%.E P n v n G G E W &.<.u.t.F.H.H.H.i.s.9.7.O.U x > * + + > U u._.hXdXyXOX{.2.L.k.        ",
"          / f.a.s.F.F.r.<.%.%.E E P G l 8 ; $ ; 9 8 j l v n n n G P I =.0.p.t.i.H.H.H.i.y.9.7.o.A k k H 8.G. XOXeXwXwX'         ",
"        w }.R.E.J.J.F.r.q.<.#.v : $ O O O O # # $ $ $ - - ; 8 j l v v v n G H P #.&.0.p.t.i.H.H.i.i.y.8.7.9.y.H.R.OXeX'         ",
"        5 .XoX X+X8X$XR.J.G.F.e.$.H k ; $ O O # $ $ $ $ $ $ $ $ $ - ; : 8 j l v v n n G P P #.=.0.p.t.i.H.H.s.y.s.H.`.          ",
"          C. X X*X6X X X X%X7X$X_.J.F.t.e.#.G k ; $ $ # $ $ $ $ $ $ $ $ $ $ $ - ; 9 8 k l l v n G P $.p.F.F.G.E.W. XV.          ",
"          z.iXoXT.Z K &.S.6XkXcX8X+X7X$XY.E.J.H.u.0.#.n 8 ; $ $ # # # $ $ $ $ $ # $ $ * 8 n #.6.r.F.G.R.}.oXiXxXeXeX].          ",
"          b.jX=X}.V p d K I %.1.D.hXhX@XoX X X7X$X_.J.J.F.e.;.Q m 9 - $ $ $ - 9 z J *.e.t.J.Y.}.%XiXrXeXeXsXjXrXOXOX_           ",
"          z.lXhXR.V f V X.#.K L >.=XP.R P.+X8XkXkXoX X}.}.W.E.J.~.^.a.4.~ 4.a.^.J.J.R.}.oXOXwXdXzXpXOX{.L.Z.M. XoX&X{           ",
"          b.jX=XZ.g f f X.#.X.X.1.oXR O ! kX-X%.,.2.U.}. X XoX*X7XW.E.E.)._.}. X&XpXeXeXwXOX@X#XI.2.,.,.=.,.,.}.&XlXv.          ",
"          b.jX XL p d d L $.$.X.,. XM.$ 5XnX/.X.K K L I %.2.L.6X=X XoX XOXwXeXyXxXwX{.L.N.2.,.,.<.<.<.,.,.,.=.T.hXvXn.          ",
"          b.+XA.d a d p Z X.#.%.$.}.R - qXkXM.#.$.#.X.I K K K I X.Z. X XOXwXOXOXZ.<.,.<.<.2.,.,.,.,.,.2.2.2.,.A.aXnX3X          ",
"          l. XL g d f d V I K I K 1.#X2X9XL.$.#.#.#.#.#.#.X.$.I I T.}. XoX+X XoXZ.=.<.,.,.,.,.2.2.2.2.2.2.2.2.2. XnXbX          ",
"          l.A.g f f f d f  .#.#.X.I :.M.,.%.I #.#.#.$.X.#.$.#.X.2. X X XhXlX+XoXS.$.,.2.2.2.2.2.2.2.2.2.2.2.,.&.L.hX9X          ",
"          z.w.s g g d f d D X.$.#.#.#.X.#.X.I X.K I I X.X.#.#. .A. XoXoXhXnX=XoXS.=.2.2.2.2.2.2.2.,.2.,.,.,.1.,.Z.&X9X          ",
"          b.{.d p a d d d d L #.#.#.#.#.#.$.X.$.X.#.X.I K I I K w. XoX+XhXvXhX X<.&.2.2.2.,.,.,.,.,.2.2.2.2.2.<.w.OX-X          ",
"          b.hX,.g d g d d a d K I X.#.$.#.X.#.X.#.#.#.#.$.#.X.K =. XoX+XhXvXhX}.....,.,.,.2.2.2.2.2.2.2.w.2.2.,.T.&X            ",
"          b.jX.XV g f g g f f D X.X.K K I I X.#.#.#.X.$.#.$.X.X.#.R.oXOXhXvX=XA.F  .,.2.w.2.2.2.2.2.2.2.,.,.=.Z.oXjX            ",
"          b.jX+X$.p f f f f d f U X.$.#.X.I I I I I X.#.X.#.#.X.L A.oX+X8XvX+X=. ...$.2.2.2.2.2.2.,.,.,.<.2.2. X=XnX            ",
"          b.8X X,.s d d g g f f f L #.#.$.$.X.#.X.X.I K I K I X.X.$.}.oXhXlXR. . ... .=.<.,.,.,.1.2.2.2.w.<.U.oXhXvX            ",
"          2X&XoX=.g g g d d a d d g D #.#.X.X.$.#.#.#.$.#.#.I I K K Y.oXhXlXR. .F  . . .=.2.2.w.2.2.w.2.2.,.T.oXhXnXvX          ",
"        w %X8XkX5X4.P V d g g g d a d B K #.X.$.#.#.X.$.$.#.$.#.X.L R. XhXvXoX2.F | ....O.<.2.2.2.2.2.2.,.=.T.oX+XjXb.          ",
"        q }.oXoX8XnXvX9X(.4.P V g g g d d D K K I X.X.#.X.#.#.#.I 2.}.oXhXvX=X X=.F  .......=.,.1.,.,.,.2.=.L.oXoX=X{           ",
"          ] r } 3XcXiXoXiXvX8X6X1X*.J V g g V F I X.I K K X.X.K $.}.oX+XhXnXhXoXT. .|  . .L L ..$.$.=.=.=.,./.kXlXdX2X          ",
"                  q ^ l.qX=XoXoX&X=X8X5XB.*.H d d Z L #.X.X.I K U. X X+XhXvXhXoXoX$.F  .|  .| F | X.=.(.-XjXmXzXyXyX].          ",
"                          w _ :X.X XoXOX&X=X8X5XB.Q Z V V D L *.}.}. X+XhXvXiXoXoXw.F F F  .:.B.5X8XpXeXyXNXzXXXh.'.            ",
"                                  0 ` B..XoX=XnXnXvX9X5XB.Q V =.}. X XoX8XkX+X XoXw.*.M.(.8XlXmXsXeXeXwX4Xj.                    ",
"                                          r v.3XcXhX+XOX&XkX9X9X=X%X X XoXoX@X=XhX9XvXmXxXfXMXuXXXh.                            ",
"                                                >Xr l.(.%XvXnXhX&XhXkX8X8XjXjXpXdXMXMXfXaX4Xj.                                  ",
"                                                        q [ b./.oXoXoX+XrXyXyXyXMXgXm.n.                                        ",
"                                                                w ` :X.X@XwXh.[                                                 ",
"                                                                                                                                ",
"                                                                                                                                ",
"                                                                                                                                ",
"                                                                                                                                ",
"                                                                                                                                ",
"                                                                                                                                ",
"                                                                                                                                ",
"                                                                                                                                "
};
