/* XPM */
static char *result[] = {
/* columns rows colors chars-per-pixel */
"64 64 245 2 ",
"   c #021C0A",
".  c #041E13",
"X  c #1F1F08",
"o  c #2A1F02",
"O  c #0C250D",
"+  c #07250B",
"@  c #12250B",
"#  c #1B2A0C",
"$  c #18260B",
"%  c #17300E",
"&  c #0C2514",
"*  c #0D2A13",
"=  c #092718",
"-  c #142C13",
";  c #1C2A12",
":  c #122C1B",
">  c #172915",
",  c #14331B",
"<  c #1B331B",
"1  c #1C3B1B",
"2  c #183516",
"3  c #0E3416",
"4  c #232A0C",
"5  c #28290A",
"6  c #382A08",
"7  c #29330E",
"8  c #383309",
"9  c #242C12",
"0  c #243B1B",
"q  c #293A17",
"w  c #363912",
"e  c #172E25",
"r  c #1B3525",
"t  c #193627",
"y  c #1A3937",
"u  c #0C312B",
"i  c #243B23",
"p  c #253A2B",
"a  c #253D35",
"s  c #2F372D",
"d  c #492B07",
"f  c #532D05",
"g  c #5C2D04",
"h  c #5A2B04",
"j  c #473709",
"k  c #583508",
"l  c #4C3F11",
"z  c #662E02",
"x  c #6C3B03",
"c  c #643806",
"v  c #733D01",
"b  c #7A3E03",
"n  c #7F3602",
"m  c #6A3608",
"M  c #523F26",
"N  c #1F431B",
"B  c #2A461A",
"V  c #364519",
"C  c #34541A",
"Z  c #1C4138",
"A  c #234322",
"S  c #2C4B24",
"D  c #2D4B2A",
"F  c #294726",
"G  c #364B27",
"H  c #2E5328",
"J  c #3C532B",
"K  c #395828",
"L  c #2A4637",
"P  c #34493A",
"I  c #3A5836",
"U  c #3E6233",
"Y  c #38653A",
"T  c #39612E",
"R  c #474A11",
"E  c #554D13",
"W  c #774608",
"Q  c #714E11",
"!  c #556917",
"~  c #756B17",
"^  c #475C2B",
"/  c #5A4D33",
"(  c #485935",
")  c #555930",
"_  c #6B5223",
"`  c #4B632B",
"'  c #476836",
"]  c #566A36",
"[  c #58743B",
"{  c #536E32",
"}  c #677639",
"|  c #747A3C",
" . c #706D2F",
".. c #183948",
"X. c #173D58",
"o. c #284647",
"O. c #354D45",
"+. c #3A5749",
"@. c #2A4659",
"#. c #39545D",
"$. c #375558",
"%. c #344E51",
"&. c #36634E",
"*. c #3A5965",
"=. c #274762",
"-. c #1D4040",
";. c #465748",
":. c #475B56",
">. c #51534A",
",. c #476A49",
"<. c #59684A",
"1. c #597D43",
"2. c #476555",
"3. c #546957",
"4. c #4F784E",
"5. c #6A7748",
"6. c #6E734C",
"7. c #435C6B",
"8. c #475E60",
"9. c #4E5C69",
"0. c #576B68",
"q. c #496173",
"w. c #526D6E",
"e. c #677769",
"r. c #677678",
"t. c #707463",
"y. c #873804",
"u. c #8A4907",
"i. c #954801",
"p. c #895608",
"a. c #995608",
"s. c #8D5A18",
"d. c #A35809",
"f. c #AA5003",
"g. c #856314",
"h. c #8E7615",
"j. c #B76606",
"k. c #AD710B",
"l. c #8F5722",
"z. c #8E6C2F",
"x. c #AB7F2B",
"c. c #C26903",
"v. c #D46C02",
"b. c #CB7609",
"n. c #837254",
"m. c #77833D",
"M. c #778E2C",
"N. c #5F833F",
"B. c #598647",
"V. c #5E914F",
"C. c #5F925E",
"Z. c #688745",
"A. c #768946",
"S. c #6B9649",
"D. c #78964D",
"F. c #67855B",
"G. c #679854",
"H. c #7A9B52",
"J. c #768557",
"K. c #6CA456",
"L. c #75A757",
"P. c #7BAC57",
"I. c #678C63",
"U. c #78996A",
"Y. c #759D79",
"T. c #728B6F",
"R. c #76A36F",
"E. c #B58D0F",
"W. c #898735",
"Q. c #BD9634",
"!. c #BD9938",
"~. c #B58D32",
"^. c #98B32E",
"/. c #AFA839",
"(. c #D0900E",
"). c #FAB707",
"_. c #EBA208",
"`. c #C09A37",
"'. c #C29B39",
"]. c #C8B033",
"[. c #DC9F0A",
"{. c #ADCD2A",
"}. c #AEC41F",
"|. c #EBC40F",
" X c #879A4B",
".X c #828857",
"XX c #949C59",
"oX c #88934A",
"OX c #B68E47",
"+X c #8BAB55",
"@X c #96A654",
"#X c #89B35B",
"$X c #98B65C",
"%X c #8BAF49",
"&X c #A3AA59",
"*X c #ACB154",
"=X c #8A9673",
"-X c #91AF6E",
";X c #ABB56F",
":X c #D5B849",
">X c #9DC35E",
",X c #B1C85E",
"<X c #9BC362",
"1X c #AACD64",
"2X c #A5C864",
"3X c #B8C864",
"4X c #B7D669",
"5X c #B1CB6F",
"6X c #D9C550",
"7X c #D1C856",
"8X c #E0CA51",
"9X c #C8D56C",
"0X c #D9E86B",
"qX c #D6E670",
"wX c #FDFE72",
"eX c #F9FA79",
"rX c #F1F170",
"tX c #EFDC5F",
"yX c #366996",
"uX c #517588",
"iX c #4679A7",
"pX c #6C7982",
"aX c #558591",
"sX c #6F908D",
"dX c #78AC81",
"fX c #7EC594",
"gX c #869899",
"hX c #839487",
"jX c #92B28F",
"kX c #ACBA8B",
"lX c #95A9AF",
"zX c #AAB5B0",
"xX c #8B9FA8",
"cX c #9DC394",
"vX c #A5C88A",
"bX c #A5CB99",
"nX c #ACD091",
"mX c #B1CDAB",
"MX c #CDD693",
"NX c #EEF189",
"BX c #DDE59D",
"VX c #C9CCCA",
"CX c #F1EEEE",
"ZX c #DBE0E8",
"AX c None",
/* pixels */
"AXAXAXAXAXAXAXAXAXAXAXAXAXAXAXAXAXAXAXAXAXAXAXAXAXAXAXAXAXAXAXAXAXAXAXAXAXAXAXAXAXAXAXAXAXAXAXAXAXAXAXAXAXAXAXAXAXAXAXAXAXAXAXAX",
"AXAXAXAXAXAXAXAXAXAXAXAXAXAXAXAXAXAXAXAXAXAXAXAXAXAXAXAXAXAXAXAXAXAXAXAXAXAXAXAXAXAXAXAXAXAXAXAXAXAXAXAXAXAXAXAXAXAXAXAXAXAXAXAX",
"AXAXAXAXAXAXAXAXAXAXAXAXAXAXAXAXAXAXAXAXAXAXAXAXAXAXAXAXAXAXAXAXAX- 4 9 9 4 @ AXAXAXAXAXAXAXAXAXAXAXAXAXAXAXAXAXAXAXAXAXAXAXAXAX",
"AXAXAXAXAXAXAXAXAXAXAXAXAXAXAXAXAXAXAXAXAXAXAXAXAXAXAXAXAXAX  4 6 f h h h d Q  .) q AXAXAXAXAXAXAXAXAXAXAXAXAXAXAXAXAXAXAXAXAXAX",
"AXAXAXAXAXAXAXAXAXAXAXAXAXAXAXAXAXAXAXAXAXAXAXAXAXAXAXAXAX0 ] | ] d z h h n Q.eXrX7XoX> AXAXAXAXAXAXAXAXAXAXAXAXAXAXAXAXAXAXAXAX",
"AXAXAXAXAXAXAXAXAXAXAXAXAXAXAXAXAXAXAXAXAXAXAXAXAXAXAXAX` 3X3X X@X( d d n l.`.:X:X8XtXXX0 AXAXAXAXAXAXAXAXAXAXAXAXAXAXAXAXAXAXAX",
"AXAXAXAXAXAXAXAXAXAXAXAXAXAXAXAXAXAXAXAXAXAXAXAXAXAXAX^ 3X*X X+XXX Xw y.y.x.`.`.`.`.Q.:XXX  AXAXAXAXAXAXAXAXAXAXAXAXAXAXAXAXAXAX",
"AXAXAXAXAXAXAXAXAXAXAXAXAXAXAXAXAXAXAXAXAXAXAXAXAXAXq $XXXD. X XD.,.w y.y.~.`.`.`.'.'.6XrX) AXAXAXAXAXAXAXAXAXAXAXAXAXAXAXAXAXAX",
"AXAXAXAXAXAXAXAXAXAXAXAXAXAXAXAXAXAXAXAXAXAXAXAXAXAX^ XX| A.H.Z.[ ` Z.d y.Q.`.`.`.'.Q.6XrX*XAXAXAXAXAXAXAXAXAXAXAXAXAXAXAXAXAXAX",
"AXAXAXAXAXAXAXAXAXAXAXAXAXAXAXAXAXAXAXAXAXAXAXAXAX-  .| m.} ] 1.U B.4X` z Q.'.`.`.`.`.Q.tX7X9 AXAXAXAXAXAXAXAXAXAXAXAXAXAXAXAXAX",
"AXAXAXAXAXAXAXAXAXAXAXAXAXAXAXAXAXAXAXAXAXAXAXAXAXS m.m.} q Y B.Y H.1X$XV l.'.'.Q.Q.Q.:XtX*XG AXAXAXAXAXAXAXAXAXAXAXAXAXAXAXAXAX",
"AXAXAXAXAXAXAXAXAXAXAXAXAXAXAXAXAXAXAXAXAXAXAXoX] S | 5.G 0 ' B.' #X2X1X$X' z./.:X6X6X6X&X3XK AXAXAXAXAXAXAXAXAXAXAXAXAXAXAXAXAX",
"AXAXAXAXAXAXAXAXAXAXAXAXAXAXAXAXAXAXAXAXAX5.XX>.s `  .J 1 0 ' B.I >X$X#X$X4X X} m.W.W. X9XqXJ AXAXAXAXAXAXAXAXAXAXAXAXAXAXAXAXAX",
"AXAXAXAXAXAXAXAXAXAXAXAXAXAXAXAXAXAXAXAX) XX6.s & ] | V 0 2 ' ' ' H.[ { { } 4X4X9X4X9X0X0XqXJ AXAXAXAXAXAXAXAXAXAXAXAXAXAXAXAXAX",
"AXAXAXAXAXAXAXAXAXAXAXAXAXAXAXAXAXAXAXAX( <.;.p > } ^ 0 C 2 ' I [ [ J K ^ ` [ $X4X0X0X*X$X9X( AXAXAXAXAXAXAXAXAXAXAXAXAXAXAXAXAX",
"AXAXAXAXAXAXAXAXAXAXAXAXAXAXAXAXAXAXAXAXi .Xn.P : ] B B B A ' ` 1.B & F I I I H.4X7XA.[ A.@X^ AXAXAXAXAXAXAXAXAXAXAXAXAXAXAXAXAX",
"AXAXAXAXAXAXAXAXAXAXAXAXAXAXAXAXAXAXAXAX2..XXX<.e G q q B i U 1.{ < +.8.P A q 1.4X@XJ S F ^ 0 AXAXAXAXAXAXAXAXAXAXAXAXAXAXAXAXAX",
"AXAXAXAXAXAXAXAXAXAXAXAXAXAXAXAXAXAXAXAX0.=X) <.<.q 0 V V S H D.{ p 0.sX3.P 1 1.4X1.2 F L : AXAXAXAXAXAXAXAXAXAXAXAXAXAXAXAXAXAX",
"AXAXAXAXAXAXAXAXAXAXAXAXAXAXAXAXAXAXAXAX8.3.6.J.t.<.D 0 B G B +XZ.< A L ;.D S S.5XB P hXe.;.AXAXAXAXAXAXAXAXAXAXAXAXAXAXAXAXAXAX",
"AXAXAXAXAXAXAXAXAXAXAXAXAXAXAXAXAXAXAXAXp 0.kXkXkXkXJ.3.1 2 A #X$X^ B I K J J $X<X` D 3.O.p AXAXAXAXAXAXAXAXAXAXAXAXAXAXAXAXAXAX",
"AXAXAXAXAXAXAXAXAXAXAXAXAXAXAXAXAXAXAXAX- r.gXMXmXt.=X;X5XA.& +X1X+X} { [ K S.1X<XZ.} S G 0 AXAXAXAXAXAXAXAXAXAXAXAXAXAXAXAXAXAX",
"AXAXAXAXAXAXAXAXAXAXAXAXAXAXAXAXAXAXAXAX& ;.gXmX6.=XNXeXeXNX5.] 1XqX0X$X{ D.1X>X1XH.A.3X9X] AXAXAXAXAXAXAXAXAXAXAXAXAXAXAXAXAXAX",
"AXAXAXAXAXAXAXAXAXAXAXAXAXAXAXAXAXAXAX> 5 i pXgXT.BXeXwXwXwXeX] 1X0XeXS.K.1X>X<X4X1X[ 3XqXJ AXAXAXAXAXAXAXAXAXAXAXAXAXAXAXAXAXAX",
"AXAXAXAXAXAXAXAXAXAXAXAXAXAXAXAXAX& 6 h z X :.r.jXMXwXwXNX9XeXA.H.rX,X' 1X>X2X1X0X4Xm.*X;XI <.AXAXAXAXAXAXAXAXAXAXAXAXAXAXAXAXAX",
"AXAXAXAXAXAXAXAXAXAXAXAXAXAXAXAX& # d h z h 0 ;.gXzXMXBXMXkXMX6.' 4XN.S.1X1XS.S.@X2XZ.3X] sX<.AXAXAXAXAXAXAXAXAXAXAXAXAXAXAXAXAX",
"AXAXAXAXAXAXAXAXAXAXAXAXAXAXAXAXAXAX+ @ 5 f 6 : r.xXlXzXkX-X9X^ I P.B.#X#X#XP.B.Z.-X XA.O.zX;.AXAXAXAXAXAXAXAXAXAXAXAXAXAXAXAXAX",
"AXAXAXAXAXAXAXAXAXAXAXAXAXAXAXAXAXAXAXAXAX& 4 # r 0.sXlXlXbX5.- ' K.4.K.K.K.L.L.#X2XD.F pXr.r AXAXAXAXAXAXAXAXAXAXAXAXAXAXAXAXAX",
"AXAXAXAXAXAXAXAXAXAXAXAXAXAXAXAXAXAXAXAXAXAXAXAXO - p I $.P 2 D ' G.[ K.L.G.B.G.K.+XJ :.w.r AXAXAXAXAXAXAXAXAXAXAXAXAXAXAXAXAXAX",
"AXAXAXAXAXAXAXAXAXAXAXAXAXAXAXAXAXAXAXAXAXAXAXAX* : $ 6 o - J D U V.S.#XB.Y ' ` G.B.r ;.: AXAXAXAXAXAXAXAXAXAXAXAXAXAXAXAXAXAXAX",
"AXAXAXAXAXAXAXAXAXAXAXAXAXAXAXAXAXAXAXAXAXAX* G t t s 9 d 5 A J I B.+X4XG.L.V.V.P.[ AXAXAXAXAXAXAXAXAXAXAXAXAXAXAXAXAXAXAXAXAXAX",
"AXAXAXAXAXAXAXAXAXAXAXAXAXAXAXAXAXAXAXAXAX> ) 5.C.C _ _ , 4 - D J ' S.<XP.L.P.P.#XS AXAXAXAXAXAXAXAXAXAXAXAXAXAXAXAXAXAXAXAXAXAX",
"AXAXAXAXAXAXAXAXAXAXAXAXAXAXAXAXAXAXAXAX> ( z.R.<XH I OXl.t @ 3 I ' T B.V.#X3X1XA.O AXAXAXAXAXAXAXAXAXAXAXAXAXAXAXAXAXAXAXAXAXAX",
"AXAXAXAXAXAXAXAXAXAXAXAXAXAXAXAXAXAXAX= s 6.%X-XS.= q.dXOXl.t + 2 H I U ' N.A.N.0 AXAXAXAXAXAXAXAXAXAXAXAXAXAXAXAXAXAXAXAXAXAXAX",
"AXAXAXAXAXAXAXAXAXAXAXAXAXAXAXAXAXAXAXu 6.-X-X%X, ..uXsXY.!.) , $ @ 0 A , N 0 # AXAXAXAXAXAXAXAXAXAXAXAXAXAXAXAXAXAXAXAXAXAXAXAX",
"AXAXAXAXAXAXAXAXAXAXAXAXAXAXAXAXAX< @ t L ,.C.1 M / yXsXdX-X~.2.< ~ &XF.  L t r t - AXAXAXAXAXAXAXAXAXAXAXAXAXAXAXAXAXAXAXAXAXAX",
"AXAXAXAXAXAXAXAXAXAXAXAXAXAXAX$ Q (.E.(.}.E . ..>.l.w.iXY.Y.:X=X=X/.T.D L 9.7.,.U.,.- % AXAXAXAXAXAXAXAXAXAXAXAXAXAXAXAXAXAXAXAX",
"AXAXAXAXAXAXAXAXAXAXAXAXAXAXAXl v.v._.).).|.~ u X.>.x.iXaXY.G.F F F y o.q.q.7.7.jXcXY V k.~ E q O : r + AXAXAXAXAXAXAXAXAXAXAXAX",
"AXAXAXAXAXAXAXAXAXAXAXAXAXAXAXw d.f.d.x._._.).h.e u n.iXiXaXB ~ 2 Z %.$.@.*.7.7.sXmXvX` R W W 8 1 U.U.5.A * AXAXAXAXAXAXAXAXAXAX",
"AXAXAXAXAXAXAXAXAXAXAXAXAXAXAX+ j W y.x Q j.b.b.j.l > i u u B E t :.7.+.O.O.O.$.uXsXbXnXG.I I 4.cXvXU.bX( p.k.~ - AXAXAXAXAXAXAX",
"AXAXAXAXAXAXAXAXAXAXAXAXAXAXAXAX; c v W m x u.u.a.c.Q : H M.}.C . t #.7.q.q.+.O.#.uXsXcXbXmXbXmXbX-XC.cXV b._.g.7 ~ q AXAXAXAXAX",
"AXAXAXAXAXAXAXAXAXAXAXAXAXAXAXAXAX4 k W b W x c k x c t G.%X{.{.K 2   y o.o.*.q.y p a ( ,.3.I.Y.cXvXU.I.w b.k.4 p.(.V AXAXAXAXAX",
"AXAXAXAXAXAXAXAXAXAXAXAXAXAXAXAXAXAX@ 8 k v b b b W j A G.K.^.{.{.^.! 1 q 6 e *.r :.:.>.' ;.( J I cXjX4.w p.> w b.k.9 AXAXAXAXAX",
"AXAXAXAXAXAXAXAXAXAXAXAXAXAXAXAXAXAXAXAX> 4 8 k c k % U B.K.K.P.{.^.{.` 6 k p , L ;.1 H T H I <.I Y.4., Q j 7 R (.h.AXAXAXAXAXAX",
"AXAXAXAXAXAXAXAXAXAXAXAXAXAXAXAXAXAXAXAXAXAXAX* t Z y A { K.L.L.K.C 1 % @ P F + t p K T N N S N A +.6 p.E 8 p.V d.E AXAXAXAXAXAX",
"AXAXAXAXAXAXAXAXAXAXAXAXAXAXAXAXAXAXAXAXAXAXAXe >.r.iXe 3 N [ 1.S * 0.:.O.L o 5 4 , S A 3 N S S = , 7 R % k g.q R w AXAXAXAXAXAX",
"AXAXAXAXAXAXAXAXAXAXAXAXAXAXAXAXAXAXAXAXAXAXAX: @.n.w.o.T.r.: < = @.a ;.P O $ 4 ; : 3 2 1 A A 1 AXAXAXAXAXAX; AXAXAXAXAXAXAXAXAX",
"AXAXAXAXAXAXAXAXAXAXAXAXAXAXAXAXAXAXAXAXAXAXAXAX..9.6.y zXZX( VX+.-.=.) e...: . AXAXAXAXAXAX3 AXAXAXAXAXAXAXAXAXAXAXAXAXAXAXAXAX",
"AXAXAXAXAXAXAXAXAXAXAXAXAXAXAXAXAXAXAXAXAXAXAXAXe @.n.O.$.zXP VXAX+ @.3.t...! ^ AXAXAXAXAXAXAXAXAXAXAXAXAXAXAXAXAXAXAXAXAXAXAXAX",
"AXAXAXAXAXAXAXAXAXAXAXAXAXAXAXAXAXAXAXAXAXAXAXAX. ..3.r.u N D VXAXAXu %.i ! ].! AXAXAXAXAXAXAXAXAXAXAXAXAXAXAXAXAXAXAXAXAXAXAXAX",
"AXAXAXAXAXAXAXAXAXAXAXAXAXAXAXAXAXAXAXAXAXAXAXAXAXe @.w E M.{ lXAXAX% + w ~ /.{ AXAXAXAXAXAXAXAXAXAXAXAXAXAXAXAXAXAXAXAXAXAXAXAX",
"AXAXAXAXAXAXAXAXAXAXAXAXAXAXAXAXAXAXAXAXAXAXAXAXAX2 ; R ~ /.) zXAX* 5 f 7 C W.G AXAXAXAXAXAXAXAXAXAXAXAXAXAXAXAXAXAXAXAXAXAXAXAX",
"AXAXAXAXAXAXAXAXAXAXAXAXAXAXAXAXAXAXAXAXAXAXAXAX8 u.k V ~ /.) ZXzX# g g k d 6 & AXAXAXAXAXAXAXAXAXAXAXAXAXAXAXAXAXAXAXAXAXAXAXAX",
"AXAXAXAXAXAXAXAXAXAXAXAXAXAXAXAXAXAXAXAXAXAXAX7 a.W s.R V V =XCXr.5 z d b i.Q : AXAXAXAXAXAXAXAXAXAXAXAXAXAXAXAXAXAXAXAXAXAXAXAX",
"AXAXAXAXAXAXAXAXAXAXAXAXAXAXAXAXAXAXAXAXAXAX- +.W d.).[.Q s VXVXi p M f u./ :.: AXAXAXAXAXAXAXAXAXAXAXAXAXAXAXAXAXAXAXAXAXAXAXAX",
"AXAXAXAXAXAXAXAXAXAXAXAXAXAXAXAXAXAXAXAXAX& d / 2.z.oXU.4.F CXgX5 d a ;.:.O.s.l AXAXAXAXAXAXAXAXAXAXAXAXAXAXAXAXAXAXAXAXAXAXAXAX",
"AXAXAXAXAXAXAXAXAXAXAXAXAXAXAXAXAXAXAXAXAX8 v v _  ./ x.W.  AX3.6 z h g u.u.f.Q AXAXAXAXAXAXAXAXAXAXAXAXAXAXAXAXAXAXAXAXAXAXAXAX",
"AXAXAXAXAXAXAXAXAXAXAXAXAXAXAXAXAXAXAXAX@ k v k a.v.c.v.k.& AX% f g g c i.i.i.u.; AXAXAXAXAXAXAXAXAXAXAXAXAXAXAXAXAXAXAXAXAXAXAX",
"AXAXAXAXAXAXAXAXAXAXAXAXAXAXAXAXAXAXAXAX4 x W d u.c.j.j.b.q AX% f z g j W i.W 5 N : AXAXAXAXAXAXAXAXAXAXAXAXAXAXAXAXAXAXAXAXAXAX",
"AXAXAXAXAXAXAXAXAXAXAXAXAXAXAXAXAXAXAXO # x x k k a.j.j.Q % = 3 f g g f d j # u &.,.: AXAXAXAXAXAXAXAXAXAXAXAXAXAXAXAXAXAXAXAXAX",
"AXAXAXAXAXAXAXAXAXAXAXAXAXAXAXAXAXAXAX4 4 k x x k m E A &.R.&.+ 5 g c g m 6 3 $.*.8.+.* AXAXAXAXAXAXAXAXAXAXAXAXAXAXAXAXAXAXAXAX",
"AXAXAXAXAXAXAXAXAXAXAXAXAXAXAXAXAXAXO d 6 4 g c x 8 & *.aXsXfXZ + 5 f f f # u #.$.*.*.o.& AXAXAXAXAXAXAXAXAXAXAXAXAXAXAXAXAXAXAX",
"AXAXAXAXAXAXAXAXAXAXAXAXAXAXAXAXAXAX* d f 4 4 6 9 # t $.*.uXaXC.$ 4 # 4 5 # a @.@.@.@.a = AXAXAXAXAXAXAXAXAXAXAXAXAXAXAXAXAXAXAX",
"AXAXAXAXAXAXAXAXAXAXAXAXAXAXAXAXAXAXAX$ 5 4 - * ; 7 t o.L %.$.Z * $ # # 4 4 e u e e e AXAXAXAXAXAXAXAXAXAXAXAXAXAXAXAXAXAXAXAXAX",
"AXAXAXAXAXAXAXAXAXAXAXAXAXAXAXAXAXAXAXAXAXAXAXAXAXAXAXAXAXAXAXAXAXAXAXAXAXAXAXAXAXAXAXAXAXAXAXAXAXAXAXAXAXAXAXAXAXAXAXAXAXAXAXAX"
};
