/* XPM */
static char *result[] = {
/* columns rows colors chars-per-pixel */
"64 64 242 2 ",
"   c #010202",
".  c #060A07",
"X  c #01030C",
"o  c #060A0D",
"O  c #0A0A0C",
"+  c #0A0707",
"@  c #140D0C",
"#  c #11130F",
"$  c #131105",
"%  c #030513",
"&  c #050911",
"*  c #0C0B14",
"=  c #06091C",
"-  c #0B0C1B",
";  c #07031B",
":  c #140A16",
">  c #0E1314",
",  c #0C131C",
"<  c #131314",
"1  c #14141C",
"2  c #15191C",
"3  c #1A1B1B",
"4  c #300E10",
"5  c #1E2018",
"6  c #212116",
"7  c #060E28",
"8  c #0D1223",
"9  c #0A1128",
"0  c #131522",
"q  c #151B23",
"w  c #1D1D23",
"e  c #1B1C2C",
"r  c #141929",
"t  c #151B36",
"y  c #111730",
"u  c #201C25",
"i  c #211E2D",
"p  c #211F36",
"a  c #1D2223",
"s  c #12212E",
"d  c #1E2431",
"f  c #1D2538",
"g  c #232325",
"h  c #22232D",
"j  c #2A2C2D",
"k  c #282729",
"l  c #242433",
"z  c #2A2C3A",
"x  c #262A36",
"c  c #2C323B",
"v  c #293033",
"b  c #323234",
"n  c #3B3A3C",
"m  c #37363A",
"M  c #312B2E",
"N  c #551921",
"B  c #50242D",
"V  c #79282B",
"C  c #262B44",
"Z  c #2B354C",
"A  c #353B4B",
"S  c #383C48",
"D  c #2D3855",
"F  c #373B54",
"G  c #322E4B",
"H  c #423E4B",
"J  c #3D4146",
"K  c #3B445B",
"L  c #384556",
"P  c #264348",
"I  c #3B4966",
"U  c #3E5067",
"Y  c #364A6C",
"T  c #4B4A4D",
"R  c #45464A",
"E  c #4B4C53",
"W  c #4C4C5B",
"Q  c #454958",
"!  c #575759",
"~  c #51504F",
"^  c #635D57",
"/  c #5D605C",
"(  c #444D63",
")  c #4B4B64",
"_  c #444C6B",
"`  c #464767",
"'  c #4D5166",
"]  c #42556D",
"[  c #4D596C",
"{  c #565A68",
"}  c #4A5575",
"|  c #4C547C",
" . c #495B7A",
".. c #525C7B",
"X. c #555A73",
"o. c #514670",
"O. c #5D636B",
"+. c #5A6264",
"@. c #4A617E",
"#. c #5C6475",
"$. c #54637D",
"%. c #5D647B",
"&. c #526073",
"*. c #666867",
"=. c #636472",
"-. c #696B76",
";. c #6C7079",
":. c #767878",
">. c #69706B",
",. c #B95350",
"<. c #A27E75",
"1. c #D05453",
"2. c #4C5F84",
"3. c #4B5E8A",
"4. c #465A87",
"5. c #535D8C",
"6. c #525E85",
"7. c #4C5E92",
"8. c #525D90",
"9. c #4C6284",
"0. c #44628B",
"q. c #4D628B",
"w. c #486485",
"e. c #526384",
"r. c #5A6483",
"t. c #52638C",
"y. c #556B8B",
"u. c #5A698A",
"i. c #596987",
"p. c #5B728F",
"a. c #5D7083",
"s. c #4C6290",
"d. c #4E6892",
"f. c #536391",
"g. c #556A93",
"h. c #5B6B93",
"j. c #586597",
"k. c #5D7399",
"l. c #626D8C",
"z. c #656A84",
"x. c #6D7182",
"c. c #67738D",
"v. c #767A84",
"b. c #636B94",
"n. c #666A97",
"m. c #647394",
"M. c #6C7B94",
"N. c #64759E",
"B. c #6A749A",
"V. c #6D7D9C",
"C. c #697898",
"Z. c #747D9D",
"A. c #757C94",
"S. c #5E77A1",
"D. c #6B7CA3",
"F. c #6476A2",
"G. c #737DA3",
"H. c #767DA9",
"J. c #807A82",
"K. c #6C819C",
"L. c #73819D",
"P. c #7A839A",
"I. c #748295",
"U. c #7D8C8D",
"Y. c #6C82A3",
"T. c #6D83AA",
"R. c #6A8EA7",
"E. c #7484A5",
"W. c #7B85A3",
"Q. c #7C8AA4",
"!. c #7385AB",
"~. c #7A85AB",
"^. c #7389AC",
"/. c #7A8BAA",
"(. c #778BA7",
"). c #7A92AC",
"_. c #6F83B3",
"`. c #7584B2",
"'. c #7B8CB3",
"]. c #7788B2",
"[. c #7B91B4",
"{. c #6E91A8",
"}. c #8A8B8D",
"|. c #858788",
" X c #878B96",
".X c #94979C",
"XX c #8E9593",
"oX c #A29F99",
"OX c #8185A3",
"+X c #838BA3",
"@X c #838CAE",
"#X c #8A8DA7",
"$X c #8692AD",
"%X c #9699A4",
"&X c #8289B3",
"*X c #8794B7",
"=X c #949CBA",
"-X c #9EA3A6",
";X c #9BA7B9",
":X c #A5A5AB",
">X c #A5A8A9",
",X c #B0AFB4",
"<X c #B5B9B9",
"1X c #ADB0B0",
"2X c #C99C99",
"3X c #A3ACC7",
"4X c #A8B6C4",
"5X c #B8BDC5",
"6X c #B0B6D0",
"7X c #BAC3C5",
"8X c #BAC4D6",
"9X c #ADC8CE",
"0X c #C1C5C9",
"qX c #C5CAD3",
"wX c #CAD3D6",
"eX c #D3D7D8",
"rX c #DCDFCF",
"tX c #DDE9DD",
"yX c #C9D8E3",
"uX c #D4D9E8",
"iX c #D9DEF4",
"pX c #C1C6E0",
"aX c #CCE3E9",
"sX c #DAE5EB",
"dX c #DEE3F3",
"fX c #DBE9F7",
"gX c #DCF9FC",
"hX c #E2E9EE",
"jX c #E4E8EE",
"kX c #E3E5F3",
"lX c #E4EBF4",
"zX c #E4EAFB",
"xX c #ECEEFB",
"cX c #ECECF4",
"vX c #ECF3FC",
"bX c #EAFBFE",
"nX c #E7F7FA",
"mX c #F3F4FE",
"MX c #F4FCFE",
"NX c #FAFFFF",
"BX c #F4F5F7",
"VX c None",
/* pixels */
"VXVXVXVXVXVXVXVXVXVXVXVXVXVXVXVXVXVXVXVXVXVXVXVXVXVXVXVXVXVXVXVXVXVXVXVXVXVXVXVXVXVXVXVXVXVXVXVXVXVXVXVXVXVXVXVXVXVXVXVXVXVXVXVX",
"VXVXVXVXVXVXVXVXVXVXVXVXVXVXVXVXVXVXVXVXVXVXVXVXVXVXVXVXVXVXVXVXVXVXVXVXVXVXVXVXVXVXVXVXVXVXVXVXVXVXVXVXVXVXVXVXVXVXVXVXVXVXVXVX",
"VXVXVXVXVXVXVXVXVXVXVXVXVXVXVXVXVXVXVXVXVXVXVXVXVXVXVXVXVXVXVXVXVXVXVXVXVXVXVXVXVXVXVXVXVXVXVXVXVXVXVXVXVXVXVXVXVXVXVXVXVXVXVXVX",
"VXVXVXVXVXVXVXVXVXVXVXVXVXVXVXVXVXVXVXVXVXVXVXVXVXVXVXVXVXVXVXVXVXVXVXVXVXVXVXVXVXVXVXVXVXVXVXVXVXVXVXVXVXVXVXVXVXVXVXVXVXVXVXVX",
"VXVXVXVXVXVXVXVXVXVXVXVXVXVXVXVXVXVXVXVXVXVXVXVXVXVXVXVXVXVXVXVXVXVXVXVXVXVXVXVXVXVXVXVXVXVXVXVXVXVXVXVXVXVXVXVXVXVXVXVXVXVXVXVX",
"VXVXVXVXVXVXVXVXVXVXVXVXVXVXVXVXVXVXVXVXVXVXVXVXVXVXVXVXVXVXVXVXVXVXVXVXVXVXVXVXVXVXVXVXVXVXVXVXVXVXVXVXVXVXVXVXVXVXVXVXVXVXVXVX",
"VXVXVXVXVXVXVXVXVXVXVXVXVXVXVXVXVXVXVXVXVXVXVXVXVXVXVXVXVXVXVXVXVXVXVXVXVXVXVXVXVXVXVXVXVXVXVXVXVXVXVXVXVXVXVXVXVXVXVXVXVXVXVXVX",
"VXVXVXVXVXVXVXVXVXVXVXVXVXVXVXVXVXVXVXVXVXVXVXVXVXVXVXVXVXVXVXVXVXVXVXVXVXVXVXVXVXVXVXVXVXVXVXVXVXVXVXVXVXVXVXVXVXVXVXVXVXVXVXVX",
"VXVXVXVXVXVXVXVXVXVXVXVXVXVXVXVXVXVXVXVXVXVXVXVXVXVXVXVXVXVXVXVXVXVXVXVXVXVXVXVXVXVXVXVXVXVXVXVXVXVXVXVXVXVXVXVXVXVXVXVXVXVXVXVX",
"VXVXVXVXVXVXVXVXVXVXVXVXVXVXVXVXVXVXVXVXVXVXVXVXVXVXVXVXVXVXVXVXVXVXVXVXVXVXVXVXVXVXVXVXVXVXVXVXVXVXVXVXVXVXVXVXVXVXVXVXVXVXVXVX",
"VXVXVXVXVXVXVXVXVXVXVXVXVXVXVXVXVXVXVXVXVXVXVXVXVXVXVXVXVXVXVXVXVXVXVXVXVXVXVXVXVXVXVXVXVXVXVXVXVXVXVXVXVXVXVXVXVXVXVXVXVXVXVXVX",
"VXVXVXVXVXVXVXVXVXVXVXVXVXVXVXVXVXVXVXVXVXVXVXVXVXVXVXVXVXVXVXVXVXVXVXVXVXVXVXVXVXVXVXVXVXVXVXVXVXVXVXVXVXVXVXVXVXVXVXVXVXVXVXVX",
"VXVXVXVXVXVXVXVXVXVXVXVXVXVXVXVXVXVXVXVXVXVXVXVXVXVXVXVXVXVXVXVXVXVXVXVXVXVXVXVXVXVXVXVXVXVXVXVXVXVXVXVXVXVXVXVXVXVXVXVXVXVXVXVX",
"VXVXVXVXVXVXVXVXVXVXVXVXVXVXVXVXVXVXVXVXVXVXVXVXVXVXVXVXVXVXVXVXVXVXVXVXVXVXVXVXVXVXVXVXVXVXVXVXVXVXVXVXVXVXVXVXVXVXVXVXVXVXVXVX",
"VXVXVXVXVXVXVXVXVXVXVXVXVXVXVXVXVXVXVXVXVXVXVXVXVXVXVXVXVXVXVXVXVXVXVXVXVXVXVXVXVXVXVXVXVXVXVXVXVXVXVXVXVXVXVXVXVXVXVXVXVXVXVXVX",
"VXVXVXVXVXVXVXVXVXVXVXVXVXVXVXVXVXVXVXVXVXVXVXVXVXVXVXVXVXVXVXVXVXVXVXVXVXVXVXVXVXVXVXVXVXVXVXVXVXVXVXVXVXVXVXVXVXVXVXVXVXVXVXVX",
"VXVXVXVXVXVXVXVXVXVXVXVXVXVXVXVXVXVXVXVXVXVXVXVXVXVXVXVXVXVXVXVXVXVXVXVXVXVXVXVXVXVXVXVXVXVXVXVXVXVXVXVXVXVXVXVXVXVXVXVXVXVXVXVX",
"VXVXVXVXVXVXVXVXVXVXVXVXVXVXVXVXVXVXVXVXVXVXVXVXVXVXVXVXVXVXVXVXVXVXVXVXVXVXVXVXVXVXVXVXVXVXVXVXVXVXVXVXVXVXVXVXVXVXVXVXVXVXVXVX",
"VXVXVXVXVXVXVXVXVXVXVXVXVXVXVXVXVXVXVXVXVXVXVXVXVXVXVXVXVXVXVXVXVXVXVXVXVXVXVXVXVXVXVXVXVXVXVXVXVXVXVXVXVXVXVXVXVXVXVXVXVXVXVXVX",
"VXVXVXVXVXVXVXVXVXVXVXVXVXVXVXVXVXVXVXVXVXVXVXVXVXVXVXVXVXVXVXVXVXVXVXVXVXVXVXVXVXVXVXVXVXVXVXVXVXVXVXVXVXVXVXVXVXVXVXVXVXVXVXVX",
"VXVXVXVXVXVXVXVXVXVXVXVXVXVXVXVXVXVXVXVXVXVXVXVXVXVXVXVXVXVXVXVXVXVXVXVXVXVXVXVXVXVXVXVXVXVXVXVXVXVXVXVXVXVXVXVXVXVXVXVXVXVXVXVX",
"VXVXVXVXVXVXVXVXVXVXVXVXVXVXVXVXVXVXVXVXVXVXVXVXVXVXVXVXVXVXVXVXVXVXVXVXVXVXVXVXVXVXVXVXVXVXVXVXVXVXVXVXVXVXVXVXVXVXVXVXVXVXVXVX",
"VXVXVXVXVXVXVXVXVXVXVXVXVXVXVXVXVXVXVXVXVXVXVXVXVXVXVXVXVXVXVXVXVXVXVXVXVXVXVXVXVXVXVXVXVXVXVXVXVXVXVXVXVXVXVXVXVXVXVXVXVXVXVXVX",
"VXVXVXVXVXVXVXVXVXVXVXVXVXVXVXVXVXVXVXVXVXVXVXVXVXVXVXVXVXVXVXVXVXVXVXVXVXVXVXVXVXVXVXVXVXVXVXVXVXVXVXVXVXVXVXVXVXVXVXVXVXVXVXVX",
"VXVXVXVXVXVXVXVXVXVXVXVXVXVXVXVXVXVXVXVXVXVXVXVXVXVXVXVXVXVXVXVXVXVXVXVXVXVXVXVXVXbXbXVXVXVXVXVXVXVXVXVXVXVXVXVXVXVXVXVXVXVXVXVX",
"VXVXVXVXVXVXVXVXVXVXVXVXVXVXVXVXVXVXVXVXVXVXVXVXVXVXVXVXVXVXVXVXVXVXVXVXVXVXVXgX4X*.R %XVXVXVXVXVXVXVXVXVXVXVXVXVXVXVXVXVXVXVXVX",
"VXVXVXVXVXVXVXVXVXVXVXVXVXVXVXVXVXVXVXVXVXVXVXVXVXVXVXVXVXVXVXVXVXVXVXVXVXVXaX+.X @   :.VXVXVXVXVXgXgXVXVXVXVXVXVXVXVXVXVXVXVXVX",
"VXVXVXVXVXVXVXVXVXVXVXVXVXVXVXVXVXVXVXVXVXVXVXVXVXVXVXVXVXVXVXVXVXVXVXVXVXfXJ X ' { $ <XVXVXbXwX|.! ~ 1XVXVXVXVXVXVXVXVXVXVXVXVX",
"VXVXVXVXVXVXVXVXVXVXVXVXVXVXVXVXVXVXVXVXVXVXVXVXVXVXVXVXVXVXVXVXVXVXVXaXnX>.  { n.| - tX9XbX>X- o u   -.VXVXVXVXVXVXVXVXVXVXVXVX",
"VXVXVXVXVXVXVXVXVXVXVXVXVXVXVXVXVXVXVXVXVXVXVXVXVXVXVXVXVXVXVX.XM l d d a   J r.B.} , wXbX>X% t e.) > 4XVXVXVXVXVXVXVXVXVXVXVXVX",
"VXVXVXVXVXVXVXVXVXVXVXVXVXVXVXVXVXVXVXVXVXVXVXVXVXVXVXVXVXVXVXJ.  Q Q [ z e %.5.Z.' % 0 R : w y.p.u m bXVXVXVXVXVXVXVXVXVXVXVXVX",
"VXVXVXVXVXVXVXVXVXVXVXVXVXVXVXVXVXVXVXVXVXVXVXVXVXVXVXVXVXVXVX0X& #.C.y.Y Y g.t.~...Z #.Z e . s L   |.VXVXVXVXVXVXVXVXVXVXVXVXVX",
"VXVXVXVXVXVXVXVXVXVXVXVXVXVXVXVXVXVXVXVXVXVXVXVXVXVXVXVXVXVXVXNX>.8 K.9.4.0.3.0.(.E.L.@X~.W.X.C X   1XNXVXVXVXVXVXVXVXVXVXVXVXVX",
"VXVXVXVXVXVXVXVXVXVXVXVXVXVXVXVXVXVXVXVXVXVXVXVXVXVXVXVXVXVXVXwX/ X [ m.2.2.g.N.^.E.^.(.!.].&X'.=.g < -XnXVXVXVXVXVXVXVXVXVXVXVX",
"VXVXVXVXyX+.R sXVXVXVXVXVXVXVXVXVXVXVXVXVXVXVXVXVXVXVXVXVXhXc.0 0 ( $.u.2.g.E.`.!.E.E.E.!.`._.`.@XP.S   XXVXVXVXVXVXVXVXVXVXVXVX",
"VXVXVX9Xj   # wXVXVXVXVXVXVXVXVXVXVXVXVXVXVXVXVXVXVXVXVX7Xb : I m.t.w.0.k.^.!.H.!.E.(././.^.Y.!.`.`.).Q . <XVXVXVXVXVXVXVXVXVXVX",
"VXVX7Xq h =.* 7XVXVXVXVXVXVXVXVXVXVXVXVXVXVXVXVXVXVXVXU.. w -.n.3.7.3.S.[.^.!.`.~.!...C L I.).G.H.`._.).l j lXVXVXVXVXVXVXVXVXVX",
"VXhXb e OXP.X %XVXVXVXVXVXVXVXVXVXVXVXVXVXVXVXVXVXbXU.X S c.f.3.s.t.t.h.F.Y.!.!.`.!.n.) : g z.$XT.T._.'.c.  |.VXVXVXVXVXVXVXVXVX",
"VX}.X z.Z.Q.= v.MXVXVXVXVXVXVXVXVXVXVXVXVXVXVXVXVX:.& X.G.4.0.3.f.q.t.3.q.2.N.~.!.`.&X#XE + : [ {.'.&XJ.#Xz m nXVXVXVXVXVXVXVXVX",
"fXc F G.N.@XC W MXVXVXVXVXVXVXVXVXVXVXVXVXVXVXVXVX~ : C o.2.d.f.f.f.q.5.q.g.E.W.E.H.W.+XA B V   P u.o.`.[.X., qXVXVXVXVXVXVXVXVX",
"7X& z.n.F.*XI l hXVXVXVXVXVXVXVXVXVXVXVXVXVXVXVXVXVXVXj # * F j.f.t.f.3.q.!.!.E.!.!.!.#XL N 1.<.< 7 ) (.R.I.X .XMXVXVXVXVXVXVXVX",
".X0 V.t.D.'.a.* 0XMXwXVXVXVXVXVXVXVXVXVXVXVXVXVXVXVXVXrX6 3 z.h.3.f.3.3.D.^.W.Q.W.^.!.Q.X.4 ,.2XM =.+XK.R.[.l n fXVXVXVXVXVXVXVX",
"{ i G.t.Y.^.L.< oX}.k 7XVXVXVXVXVXVXVXVXVXVXVXMXeX<X7XH 0 c.u.3.8.q.5.k.].D.V.A.E.!.T.W.A.k 4 4 H J.Y.(.Y.].x.  }.bXVXVXVXVXVXVX",
"~ l `.3.F.T.Q.c k #   |.VXVXVXVXVXVXVXVXVXuX|.R u 1 1 ; n.n.3.q.t.8.8.D.V.=X3X3X$XL.W./.E.M.A ) J.H.^.(.T._.#XL q yXVXVXVXVXVXVX",
"E l H.4.S.^./.[   v m n xXVXVXVXVXVXVXnX}.a , Z ` ` * R A.t.d.y.e.8.8.c.qXzXxXxXzX8X/.D.^.].'.'.'.`.`.!.^.T.].P.9 R bXVXVXVXVXVX",
"E x D.4.h.T.E.M.9 X.x.1 >XVXVXVXVXVXnXO.% K z.l.p.L o { ' ( K L ] t.6.8XxXiXiXjXdXzXyX@XV.E.E.!.`.].T.^.^.!.E.+Xx.. +.nXVXVXVXVX",
"T l G.3.t.D.'.E.6.Z.W.f n VXVXVXVXVX/ X l.D.w.w.y.C % , - 7 & % ] r.W.zXsXkXkXkXdXdXfXiX3X(.Y.E.^.(.^.^.^.T.E.E.+X#.  +.nXfXVXVX",
"v.1 M.e.2.t.H.].!.!.'.r.O >.VXVXVX|.+ #.B.4.s.0.d.0.U U _ ` e e E.4.3XzXkXkXkXjXvXvXlXkXzXdX3XQ.Z.K.Y.E.!.^.!.!.E.).#.X m qXbXVX",
"5XO =.m.| 2.g.T.].!.T.@XW   O.VXVXg z P.e.q.q.q.7.q.q.y.h.| ; X.m.| 6XMXxXxXkXeX%X X5XxXxXkXzXiX8X=X$XL.W.Y.!.T.^.L.L 1   < +.eX",
"BXR f (.2.2.2.e.N.!.^.E. X) ; W :.& l.p.@.9.t.5.5.q.@.@.5.D 0 ;.c. .x.v.}.uXxXwX;.m u ! <XBXBXlXkXzXuXpX6X;X=X#X=X) & B W j   <X",
"VX1X+ ) G.e.0.2.w.e.Y.E.W.&Xb.t   z G.9.9.w.t.6.6.e.e.9.2.t ; - - = X     1 T >.}.XXW   X T <XcXBXzXzXzXzXkXkXuXzXv.  R ~ . R MX",
"VXVX^   X.m.t.0.q.y.K.E.!.`.'.Q.1 A ~.9.q.q.w.9.t.e.9.e.6.} K F F I _ r.} G r o O 2 M < O 1 O b :.<XaXlXvXmXxXBXmXcXS 2 $ # <XVX",
"VXVXVX~ o c a.p.w.q.V.Y.T._.Y.I.> W p.Y 9.0.g.h.I } 5.3.s.g.e.f.j.j.j.7.f.j.r.X.qXuXkX:.g VXVX! j 1 g b ! }.:X:X:X:X!   5 1XVXVX",
"VXVXVXVX>Xv , ] p.w.3.t.g.g.y.#., x t I t.q.t.!._ 7  .t.3.3.0. .D 4.0.S.9.( [ $XxXkXmX:X3 VXVXVXhX7X.X*.T k O O + # n :.wXVXVXVX",
"VXVXVXVXeXn X L m.q.f.t.3.t.t.$.l   A i.t.3.t.m.P.- Z i. .$.U 7 D u.4.p.c.e  XxXkXkXxX,X3 VXVXVXVXVXVXVXNXcXeX0X0XeXMXVXVXVXVXVX",
"VXVXVXVXVXX , W X.&...$.| I D e X & [ ..5.3.t.V.+Xh =.sX8X;Xs q u.8.8.3.H.p J.xXiXkXmX,Xu VXVXVXVXVXVXVXVXVXVXVXVXVXVXVXVXVXVXVX",
"VXVXVXVXVXVXj O > s q 2 q , % VXu O 0 ( f.f.t.B.+Xd =.bXvXVX* A t.3.7.N.&Xe O.MXhXeX.X|.< VXVXVXVXVXVXVXVXVXVXVXVXVXVXVXVXVXVXVX",
"VXVXVXVXVXVXVXVXVXVXVXVXVXVXVXVXVXb o ( u.3.t.(.+X9  XbXwXVX+ * Z i.2.N. Xw ! 0XBX>X  o j VXVXVXVXVXVXVXVXVXVXVXVXVXVXVXVXVXVXVX",
"VXVXVXVXVXVXVXVXVXVXVXVXVXVXVXVXVXVX1 q K t.q.Y.I.= S B @ < .   q $.3.N.W.u + 0 }.6 b v VXVXVXVXVXVXVXVXVXVXVXVXVXVXVXVXVXVXVXVX",
"VXVXVXVXVXVXVXVXVXVXVXVXVXVXVXVXVXVXVX> f g.3.D.c.= q * : VXVXVX& X.t.N.W.0 z e   # VXVXVXVXVXVXVXVXVXVXVXVXVXVXVXVXVXVXVXVXVXVX",
"VXVXVXVXVXVXVXVXVXVXVXVXVXVXVXVXVXVXVXl t 8.4.b...= ' M w VXVXVX: A | u.c.9 F A > VXVXVXVXVXVXVXVXVXVXVXVXVXVXVXVXVXVXVXVXVXVXVX",
"VXVXVXVXVXVXVXVXVXVXVXVXVXVXVXVXVXVXVXVX0 J.G.=X=.- :Xm 1 VXVXVXVXi A.$XOX= A.x.o VXVXVXVXVXVXVXVXVXVXVXVXVXVXVXVXVXVXVXVXVXVXVX",
"VXVXVXVXVXVXVXVXVXVXVXVXVXVXVXVXVXVXVXVX& =.4X5XE O  Xw w VXVXVXVX& ;.qX XX .X=.. VXVXVXVXVXVXVXVXVXVXVXVXVXVXVXVXVXVXVXVXVXVXVX",
"VXVXVXVXVXVXVXVXVXVXVXVXVXVXVXVXVXVXVXVXVX> q < > >   . VXVXVXVXVXVX. 1 1 # * * VXVXVXVXVXVXVXVXVXVXVXVXVXVXVXVXVXVXVXVXVXVXVXVX"
};
