/* XPM */
static char *_6212_e211a2c7a2b1858c37c8dc41e1b3fa882c52fe857a7af8521379c916ef86b793_12[] = {
/* columns rows colors chars-per-pixel */
"64 64 128 2 ",
"   c #864429",
".  c #9F4A27",
"X  c #B24F26",
"o  c #C05225",
"O  c #CD5524",
"+  c #D65723",
"@  c #DD5922",
"#  c #E25920",
"$  c #E75B1F",
"%  c #EB5B1D",
"&  c #EE5B18",
"*  c #F25E10",
"=  c #F35C0C",
"-  c #F55B0B",
";  c #F35908",
":  c #F35907",
">  c #F45908",
",  c #F75A09",
"<  c #F95908",
"1  c #F85B0B",
"2  c #F85D0D",
"3  c #F85E0F",
"4  c #F86010",
"5  c #F86111",
"6  c #F96213",
"7  c #F96314",
"8  c #F96216",
"9  c #F96516",
"0  c #F96719",
"q  c #FA681A",
"w  c #FA681C",
"e  c #FA691D",
"r  c #FA6A1E",
"t  c #FA6B1F",
"y  c #FA6C20",
"u  c #FB6D22",
"i  c #FB6D22",
"p  c #FB6E24",
"a  c #FC7024",
"s  c #FC7025",
"d  c #FB7126",
"f  c #FC7228",
"g  c #FC7329",
"h  c #FC752A",
"j  c #FC752B",
"k  c #FB762B",
"l  c #FB772C",
"z  c #FB772D",
"x  c #FB792E",
"c  c #FC7B30",
"v  c #FB7C32",
"b  c #FC7E35",
"n  c #FC7F36",
"m  c #FC8138",
"M  c #FD8239",
"N  c #FD8339",
"B  c #FD833B",
"V  c #FD843C",
"C  c #FE843D",
"Z  c #FD843D",
"A  c #FD853E",
"S  c #FD863F",
"D  c #FC8740",
"F  c #FC8841",
"G  c #FC8A42",
"H  c #FD8A42",
"J  c #FD8B43",
"K  c #FE8C43",
"L  c #FE8C43",
"P  c #FE8C44",
"I  c #FD8C44",
"U  c None",
"Y  c black",
"T  c black",
"R  c black",
"E  c black",
"W  c black",
"Q  c black",
"!  c black",
"~  c black",
"^  c black",
"/  c black",
"(  c black",
")  c black",
"_  c black",
"`  c black",
"'  c black",
"]  c black",
"[  c black",
"{  c black",
"}  c black",
"|  c black",
" . c black",
".. c black",
"X. c black",
"o. c black",
"O. c black",
"+. c black",
"@. c black",
"#. c black",
"$. c black",
"%. c black",
"&. c black",
"*. c black",
"=. c black",
"-. c black",
";. c black",
":. c black",
">. c black",
",. c black",
"<. c black",
"1. c black",
"2. c black",
"3. c black",
"4. c black",
"5. c black",
"6. c black",
"7. c black",
"8. c black",
"9. c black",
"0. c black",
"q. c black",
"w. c black",
"e. c black",
"r. c black",
"t. c black",
"y. c black",
"u. c black",
/* pixels */
"U U U U U U U U U U U U U U U U U U U U U U U U U U U U U U U U U U U U U U U U U U U U U U U U U U U U U U U U U U U U U U U U ",
"U U U U U U U U U U U U U U U U U U U U U U U U U U U U U U U U U U U U U U U U U U U U U U U U U U U U U U U U U U U U U U U U ",
"U U U U U U U U U U U U U U U U U U U U U U U U U U U U U U U U U U U U U U U U U U U U U U U U U U U U U U U U U U U U U U U U ",
"U U U U U U U U U U U U U U U U U U U U U U U U U U U U U U U U U U U U U U U U U U U U U U U U U U U U U U U U U U U U U U U U ",
"U U U U U U U U U U U U U U U U U U U U U U U U U U U U U U U U U U U U U U U U U U U U U U U U U U U U U U U U U U U U U U U U ",
"U U U U U U U U U U U U U U U U U U U U U U U U U U U U U U U U U U U U U U U U U U U U U U U U U U U U U U U U U U U U U U U U ",
"U U U U U U U U U U U U U U U U U U U U U U U U U U U U U U U U U U U U U U U U U U U U U U U U U U U U U U U U U U U U U U U U ",
"U U U U U U U U U U U U U U U U U U U U U U U U U U U U U U U U U U U U U U U U U U U U U U U U U U U U U U U U U U U U U U U U ",
"U U U U U U U U U U U U U U U U U U U U U U U U U U U U U U U U U U U U U U U U U U U U U U U U U U U U U U U U U U U U U U U U ",
"U U U U U U U U U U U U U U U U U U U U U U U U U U U U U U U U U U U U U U U U U U U U U U U U U U U U U U U U U U U U U U U U ",
"U U U U U U U U U U U U U U U U U U U U U U U U U U U U U U U U U U U U U U U U U U U U U U U U U U U U U U U U U U U U U U U U ",
"U U U U U U U U U U U U U U U U U U U U U U U U U U U U U U U U U U U U U U U U U U U U U U U U U U U U U U U U U U U U U U U U ",
"U U U U U U U U U U U U U U U U U U U U U U U U U U U U & U U U U U U U U U U U U U U U U U U U U U U U U U U U U U U U U U U U ",
"U U U U U U U U U U U U U U U U U U U U U U U U U U U U - & U U U U U U U U U U U U U U U U U U U U U U U U U U U U U U U U U U ",
"U U U U U U U U U U U U U U U U U U U U U U U U U U U U , 1 ; # U U U U U U U U U U U U U U U U U U U U U U U U U U U U U U U U ",
"U U U U U U U U U U U U U U U U U U U U U U U U U U U U , , , * U U U U U U U U U U U U U U U U U U U U U U U U U U U U U U U U ",
"U U U U U U U U U U U U U U U U U U U U U U U U U U U U - , , - U U U U U U U U U U U U U U U U U U U U U U U U U U U U U U U U ",
"U U U U U U U U U U U U U U U U U U U U U U U U U U U U * , - , U U U U U U U U U U U U U U U U U U U U U U U U U U U U U U U U ",
"U U U U U U U U U U U U U U U U U U U U U U U U U U U U U ; , U U U U U U U U U U U U U U U U U U U U U U U U U U U U U U U U U ",
"U U U U U U U U U U U U U U U U U U U U U U U U U U U U U = > U U U U U U U U U U U U U U U U U U U U U U U U U U U U U U U U U ",
"U U U U U U U U U U U U U U U U U U U U U U U U U U U U U U U U U U U U U U U U U U U U U U U U U U U U U U U U U U U U U U U U ",
"U U U U U U U U U U U U U U U U U U U U U U U U U U U U U U U U U U U U U U U U U U U U U U U U U U U U U U U U U U U U U U U U ",
"U U U U U U U U U U U U U U U U U U U U U U U U U U U U U U U U U U U U U U U U U U U U U U U U U U U U U U U U U U U U U U U U ",
"U U U U U U U U U U U U U U U U U U U U U U U U U U U U U U - > U U U U U U U U U U U U U U U U U U U U U U U U U U U U U U U U ",
"U U U U U U U U U U U U U U U U U U U U U U U U U U U U U - , U U U U U U U U U U U U U U U U U U U U U U U U U U U U U U U U U ",
"U U U U U U U U U U U U U U U U U U U U U U U U U U U - U , , U U U U U U U U U U U U U U U U U U U U U U U U U U U U U U U U U ",
"U U U U U U U U U U U U U U U U U U U U U U U U U U U - & 3 - + U U U U U U U U U U U U U U U U U U U U U U U U U U U U U U U U ",
"U U U U U U U U U U U U U U U U U U U U U U U U U U , 4 7 0 0 & O - U U U U U U U U U U U U U U U U U U U U U U U U U U U U U U ",
"U U U U U U U U U U U U U U U U U U U U U U U U U U - 9 e u p e 5 3 > U U U U U U U U U U U U U U U U U U U U U U U U U U U U U ",
"U U U U U U U U U U U U U U U U U U U U U U U U U U 5 r d k k d e 5 1 U U U U U U U U U U U U U U U U U U U U U U U U U U U U U ",
"U U U U U U U U U U U U U U U U U U U U U U U U U U 9 p k v v h t 7 - U U U U U U U U U U U U U U U U U U U U U U U U U U U U U ",
"U U U U U U U U U U U U U U U U U U U U U U U U U - 0 p z v v k y 5 U U U U U U U U U U U U U U U U U U U U U U U U U U U U U U ",
"U U U U U U U U U U U U U U U U U U U U U U U U U - 9 u g x z d e 5 U U U U U U U U U U U U U U U U U U U U U U U U U U U U U U ",
"U U U U U U U U U U U U U U U U U U U U U U U U U , 6 w u d d r * U U U U U U U U U U U U U U U U U U U U U U U U U U U U U U U ",
"U U U U U U U U U U U U U U U U U U U U U U U U U = 4 9 0 e e # X U U U U U U U U U U U U U U U U U U U U U U U U U U U U U U U ",
"U U U U U U U U U U U U U U U U U U U U U U U U U U - 5 6 7 % X . U U U U U U U U U U U U U U U U U U U U U U U U U U U U U U U ",
"U U U U U U U U U U U U U U U U U U U U U U U U U U U & , 2 + . . $ U U U U U U U U U U U U U U U U U U U U U U U U U U U U U U ",
"U U U U U U U U U U U U U U U U U U U U U U U U U U U U , 1 # . . X & U U U U U U U U U U U U U U U U U U U U U U U U U U U U U ",
"U U U U U U U U U U U U U U U U U U U U U U U U U U U - 3 4 4 + . . # , U U U U U U U U U U U U U U U U U U U U U U U U U U U U ",
"U U U U U U U U U U U U U U U U U U U U U U U U U U - 6 9 q q 9 & O # , - U U U U U U U U U U U U U U U U U U U U U U U U U U U ",
"U U U U U U U U U U U U U U U U U U U U U U U U U * 7 w y d d u e q 9 6 3 = U U U U U U U U U U U U U U U U U U U U U U U U U U ",
"U U U U U U U U U U U U U U U U U U U U U U U U = 4 0 p h x x l g d u r 0 - U U U U U U U U U U U U U U U U U U U U U U U U U U ",
"U U U U U U U U U U U U U U U U U U U U U U U U - 7 y h c n m b c x l g u 0 U U U U U U U U U U U U U U U U U U U U U U U U U U ",
"U U U U U U U U U U U U U U U U U U U U U U U U - 0 d x M A S Z B M n v k d 0 U U U U U U U U U U U U U U U U U U U U U U U U U ",
"U U U U U U U U U U U U U U U U U U U U U U U - 7 y h b A G J F F F D V b k p 5 U U U U U U U U U U U U U U U U U U U U U U U U ",
"U U U U U U U U U U U U U U U U U U U U U U % - 0 d x B D J P P P J J F V v f r 5 U U U U U U U U U U U U U U U U U U U U U U U ",
"U U U U U U U U U U U U U U U U U U U U U U - 6 r g b A G P P P P J K J S n l u 9 U U U U U U U U U U U U U U U U U U U U U U U ",
"U U U U U U U U U U U U U U U U U U U U U U , 7 u k n D J P P P P P P K F B x d w = U U U U U U U U U U U U U U U U U U U U U U ",
"U U U U U U U U U U U U U U U U U U U U U - 3 0 p x M F K P P P P P P P H Z v d w % U U U U U U U U U U U U U U U U U U U U U U ",
"U U U U U U U U U U U U U U U U U U U U U % 5 r g c V H P P P P P P P P J A v f e 5 = U U U U U U U U U U U U U U U U U U U U U ",
"U U U U U U U U U U U U U U U U U U U U U - 7 y l b A J P P P P P P P P J A v d e 5 = U U U U U U U U U U U U U U U U U U U U U ",
"U U U U U U U U U U U U U U U U U U U U U - 9 u l n S J P P P P P P P P H B x d w 4 - U U U U U U U U U U U U U U U U U U U U U ",
"U U U U U U U U U U U U U U U U U U U U U - 9 u k b A H P P P P P P J G D m z p 0 2 , U U U U U U U U U U U U U U U U U U U U U ",
"U U U U U U U U U U U U U U U U U U U U U * 7 t g c B F H K P P P J F D B c d e 6 , ; U U U U U U U U U U U U U U U U U U U U U ",
"U U U U U U U U U U U U U U U U U U U U U U - 0 p z b V S H H J H F S M v k y 9 - - U U U U U U U U U U U U U U U U U U U U U U ",
"U U U U U U U U U U U U U U U U U U U U U U = 5 0 p j c m B A S A B n c g y 9 4 = U U U U U U U U U U U U U U U U U U U U U U U ",
"U U U U U U U U U U U U U U U U U U U U U U U = 5 0 u f l c c b v x k d t 9 = % U U U U U U U U U U U U U U U U U U U U U U U U ",
"U U U U U U U U U U U U U U U U U U U U U U U & - 4 7 e u d g k g d u w 7 3 & U U U U U U U U U U U U U U U U U U U U U U U U U ",
"U U U U U U U U U U U U U U U U U U U U U U U U % > 2 5 9 q r r r 0 7 4 , * U U U U U U U U U U U U U U U U U U U U U U U U U U ",
"U U U U U U U U U U U U U U U U U U U U U U U U U U & - - - * * 5 3 , , * U U U U U U U U U U U U U U U U U U U U U U U U U U U ",
"U U U U U U U U U U U U U U U U U U U U U U U U U U U U U U U U U U U U U U U U U U U U U U U U U U U U U U U U U U U U U U U U ",
"U U U U U U U U U U U U U U U U U U U U U U U U U U U U U U U U U U U U U U U U U U U U U U U U U U U U U U U U U U U U U U U U ",
"U U U U U U U U U U U U U U U U U U U U U U U U U U U U U U U U U U U U U U U U U U U U U U U U U U U U U U U U U U U U U U U U ",
"U U U U U U U U U U U U U U U U U U U U U U U U U U U U U U U U U U U U U U U U U U U U U U U U U U U U U U U U U U U U U U U U "
};
